<?xml version="1.0" standalone="no"?>
<!DOCTYPE svg PUBLIC "-//W3C//DTD SVG 1.1//EN" "http://www.w3.org/Graphics/SVG/1.1/DTD/svg11.dtd" >
<!--
2013-9-30: Created.
-->
<svg>
<metadata>
Created by iconfont
</metadata>
<defs>

<font id="iconfont" horiz-adv-x="1024" >
  <font-face
    font-family="iconfont"
    font-weight="500"
    font-stretch="normal"
    units-per-em="1024"
    ascent="896"
    descent="-128"
  />
    <missing-glyph />
    
    <glyph glyph-name="x" unicode="x" horiz-adv-x="1001"
d="M281 543q-27 -1 -53 -1h-83q-18 0 -36.5 -6t-32.5 -18.5t-23 -32t-9 -45.5v-76h912v41q0 16 -0.5 30t-0.5 18q0 13 -5 29t-17 29.5t-31.5 22.5t-49.5 9h-133v-97h-438v97zM955 310v-52q0 -23 0.5 -52t0.5 -58t-10.5 -47.5t-26 -30t-33 -16t-31.5 -4.5q-14 -1 -29.5 -0.5
t-29.5 0.5h-32l-45 128h-439l-44 -128h-29h-34q-20 0 -45 1q-25 0 -41 9.5t-25.5 23t-13.5 29.5t-4 30v167h911zM163 247q-12 0 -21 -8.5t-9 -21.5t9 -21.5t21 -8.5q13 0 22 8.5t9 21.5t-9 21.5t-22 8.5zM316 123q-8 -26 -14 -48q-5 -19 -10.5 -37t-7.5 -25t-3 -15t1 -14.5
t9.5 -10.5t21.5 -4h37h67h81h80h64h36q23 0 34 12t2 38q-5 13 -9.5 30.5t-9.5 34.5q-5 19 -11 39h-368zM336 498v228q0 11 2.5 23t10 21.5t20.5 15.5t34 6h188q31 0 51.5 -14.5t20.5 -52.5v-227h-327z" />
    

    
    <glyph glyph-name="index" unicode="&#58886;" d="M62.4067 669.7695l896.9267 0 0-87.081-896.9267 0 0 87.081ZM62.4067 346.1701l896.9267 0 0-87.0799-896.9267 0 0 87.0799ZM62.4067 22.5697l896.9267 0 0-87.0799-896.9267 0 0 87.0799Z"  horiz-adv-x="1024" />

    
    <glyph glyph-name="fy" unicode="&#59000;" d="M279.13268331432056 626.6371405551142c0 72.82995729363822 11.336995413138773 128.7344770713697 43.836386331808875 165.14945381146742 23.42979230009342 27.099519746801743 55.17338174494762 38.9673196976402 86.17166812389651 38.9673196976402 25.697191001376897 0 48.37118373437581-9.315458900017367 59.70818105423597-17.784058940062998l-12.092796886954641-22.018358960085813c-12.092796886954641 7.621739273352516-26.452990568471385 15.243478546705033-52.15018347656966 15.243478546705033-83.90426942261301 0-99.02026457794564-106.71611811128389-99.02026457794564-179.54607349820068l0-26.252658980108635 112.62466059908924 0 0-26.252658980108635L305.5856757895131 574.1435851590817l0-427.69956683420145-26.452990568471385 0L279.13268331432056 574.1318245016184 219.41400575889523 574.1318245016184l0 26.252658980108635 59.70818105423597 0L279.12218681313135 626.6371405551142zM836.6804191583822 600.3844815750057L711.217660513154 255.68895426533766c-83.14846985551851-234.60373441596042-114.13625973327825-270.18361486027095-200.30792785717477-318.44287023628095l-9.825396278949787 23.712078586750657c111.8688610319948 49.1296393643507 148.14724787941594 197.3301324382637 148.14724787941594 199.87071283162163 0 4.234300020022815-2.267398701283479 10.162319666710482-5.2905988763828296 18.642680364219245L492.7705373255469 600.3844815750057l30.23199031066524 0 112.62466059908924-312.51485058959327c11.336995413138773-33.039300050952534 20.406594031715443-60.12705723356978 31.74358944485422-95.70693767788026l1.511599134188986 0c12.092796886954641 33.874398253461145 21.918193165904437 64.36135725359259 34.7772861211427 102.48181809126108l103.55506388723397 305.7399701762124L836.6804191583822 600.3844815750057zM2527.5724193310816 146.43225576069597l-26.452990568471385 0 0 270.17185229608646c0 87.23833763783462-30.23199031066524 168.5486556289816-119.42685860966104 168.5486556289816-80.88107115423506 0-136.05445289918268-84.69775915119804-136.05445289918268-154.98713605147827l0-283.72161121612663-26.452990568471385 0L2219.185124778575 497.91442604792906c0 38.9673196976402-0.755799567094493 67.74879650692229-3.023198268377972 102.47005552707654l25.697191001376897 0 2.267398701283479-84.69775915119804 1.511599134188986 0c28.720391176476248 58.44510017108944 80.12527158714053 94.86007691118718 142.11134784384913 94.86007691118718 31.74358944485422 0 139.83345073465512-16.090339313398147 139.83345073465512-191.41387535576052L2527.5829158322695 146.43225576069597zM2967.4478741564712 251.44289168113016c0-37.26183750679084 0.755799567094493-70.30113946446477 3.023198268377972-105.02239657789762l-24.941391434282405 0-3.023198268377972 83.00403761781182-1.511599134188986 0c-20.406594031715443-44.036717920171625-65.76507599890243-93.1663572845223-139.07765116756065-93.1663572845223-46.85958460018684 0-139.07765116756065 23.723841150935176-139.07765116756065 199.88247539580618L2662.8395793461596 600.3844815750057l26.452990568471385 0 0-254.91661118519687c0-114.34961804209954 37.03418832123705-184.63899494237978 116.40365843456172-184.63899494237978 69.54407383437487 0 135.29865333208815 73.68857871779446 135.29865333208815 157.53947710229943L2940.9948816812785 600.3844815750057l26.463488976381896 0L2967.45837065766 251.44289168113016zM3124.6227308362636 683.388521099539l26.452990568471385 13.549758920040182 0-96.55379844457339 119.42685860966104 0 0-26.252658980108635-119.42685860966104 0 0-312.51485058959327c0-57.58647684021182 19.661290965810082-99.94123769790309 63.49767729761894-99.94123769790309 21.183386601188193 0 34.7772861211427 4.234300020022815 44.592185898903345 8.480360697508763l6.046398443477321-22.030121524270324c-12.838098046138633-5.928019646687664-28.720391176476248-11.009180433403595-52.139685068659155-11.009180433403595-82.40316678961317 0-88.44956523309047 81.29855733368386-88.44956523309047 134.66249671805735L3124.6227308362636 574.1318245016184l-70.29987340146937 0 0 26.252658980108635 70.29987340146937 0L3124.6227308362636 683.388521099539z"  horiz-adv-x="1024" />

    
    <glyph glyph-name="switch" unicode="&#59362;" d="M729.008 89.50400000000002L295.008 89.50400000000002C140.912 89.50400000000002 16 214.41600000000005 16 368.496l0 31.008c0 154.08 124.912 278.992 279.008 278.992l434 0c154.08 0 279.008-124.912 279.008-278.992l0-31.008C1008 214.41600000000005 883.088 89.50400000000002 729.008 89.50400000000002zM946.96 399.232c0 119.696-97.04 216.736-216.736 216.736L294.384 615.9680000000001c-119.696 0-216.736-97.04-216.736-216.736l0-31.008c0-119.696 97.04-216.736 216.736-216.736L730.24 151.48800000000006c119.696 0 216.736 97.04 216.736 216.736L946.976 399.232zM702.32 223.42399999999998c-90.72 0-164.272 73.536-164.272 164.256 0 90.72 73.552 164.272 164.272 164.272 90.72 0 164.272-73.536 164.272-164.272C866.592 296.96000000000004 793.04 223.42399999999998 702.32 223.42399999999998z"  horiz-adv-x="1024" />

    
    <glyph glyph-name="grid" unicode="&#58880;" d="M121.904762 690.095238m-121.904762 0a12.5 12.5 0 1 0 243.809524 0 12.5 12.5 0 1 0-243.809524 0ZM121.904762 300m-121.904762 0a12.5 12.5 0 1 0 243.809524 0 12.5 12.5 0 1 0-243.809524 0ZM512 690.095238m-121.904762 0a12.5 12.5 0 1 0 243.809524 0 12.5 12.5 0 1 0-243.809524 0ZM512 300m-121.904762 0a12.5 12.5 0 1 0 243.809524 0 12.5 12.5 0 1 0-243.809524 0ZM902.095238 690.095238m-121.904762 0a12.5 12.5 0 1 0 243.809524 0 12.5 12.5 0 1 0-243.809524 0ZM902.095238 300m-121.904762 0a12.5 12.5 0 1 0 243.809524 0 12.5 12.5 0 1 0-243.809524 0ZM121.904762-90.095238m-121.904762 0a12.5 12.5 0 1 0 243.809524 0 12.5 12.5 0 1 0-243.809524 0ZM512-90.095238m-121.904762 0a12.5 12.5 0 1 0 243.809524 0 12.5 12.5 0 1 0-243.809524 0ZM902.095238-90.095238m-121.904762 0a12.5 12.5 0 1 0 243.809524 0 12.5 12.5 0 1 0-243.809524 0Z"  horiz-adv-x="1024" />

    
    <glyph glyph-name="img" unicode="&#58937;" d="M1084.558915 873.729781L112.204132 873.729781C50.32871 873.729781 0.018699 823.41977 0.018699 761.544348L0.018699 13.569781000000035C0.018699-48.268242999999984 50.32871-98.625002 112.204132-98.625002L1084.558915-98.625002C1146.396939-98.625002 1196.744348-48.268242999999984 1196.744348 13.569781000000035L1196.744348 761.544348C1196.744348 823.41977 1146.396939 873.729781 1084.558915 873.729781L1084.558915 873.729781ZM1121.947826 13.569781000000035C1121.947826-7.055359999999951 1105.221454-23.819129999999973 1084.558915-23.819129999999973L112.204132-23.819129999999973C91.541593-23.819129999999973 74.777823-7.055359999999951 74.777823 13.569781000000035L74.777823 761.544348C74.777823 782.206887 91.541593 798.92391 112.204132 798.92391L1084.558915 798.92391C1105.221454 798.92391 1121.947826 782.206887 1121.947826 761.544348L1121.947826 13.569781000000035ZM1007.322157 462.358261L858.598623 462.358261C756.164786 462.909885 695.065377 405.643798 664.595144 378.053231 640.772452 355.25899100000004 569.612911 310.942052 526.268327 312.74651800000004L411.717454 312.74651800000004C331.357941 311.615221 266.827242 264.633656 231.298894 226.44068200000004L231.280195 226.45003099999997 159.643826 151.64416000000006C145.348341 136.73160299999995 145.862567 113.04915500000004 160.784473 98.75367000000006 175.69703 84.467534 199.379478 84.98176000000001 213.628216 99.90366600000004L285.273934 174.70953699999995 286.096696 175.588397C309.246219 202.36555099999998 364.539548 239.12804200000005 411.717454 237.97804499999995L526.268327 237.97804499999995C607.403854 239.79186100000004 679.5264 292.53275799999994 714.437677 322.292424 746.927416 350.939492 784.157384 387.000765 858.598623 387.55239L1007.322157 387.55239C1027.984696 387.55239 1044.711068 404.31616 1044.711068 424.978699 1044.711068 445.60384 1027.984696 462.358261 1007.322157 462.358261ZM448.769781 574.553043C448.769781 615.8781220000001 415.288988 649.349565 373.96391 649.349565 332.67623 649.349565 299.195437 615.8781220000001 299.195437 574.553043 299.195437 533.256014 332.67623 499.747172 373.96391 499.747172 415.288988 499.747172 448.769781 533.256014 448.769781 574.553043Z"  horiz-adv-x="1203" />

    
    <glyph glyph-name="dialog1" unicode="&#58881;" d="M512.408299 820.180174c-239.836367 0-434.936857-167.04655-434.936857-372.387265 0-112.989377 61.201897-219.213677 167.885662-291.579845 14.198374-9.6815 33.520441-5.957689 43.151799 8.253988 9.631358 14.182001 5.934153 33.484625-8.263198 43.104727-89.379657 60.606333-140.641157 148.148132-140.641157 240.22113 0 171.112146 167.233815 310.322721 372.802728 310.322721 205.570959 0 372.804774-139.210575 372.804774-310.322721S717.979258 137.46814099999995 512.408299 137.46814099999995c-1.925862 0-3.572362-0.743944-5.406127-1.086751-14.693654 2.639107-29.574572-5.057179-34.732036-19.579941-5.965875-16.850783-45.016263-45.245484-91.399663-71.561849 16.931624 56.449663 8.822946 68.550259 3.388167 76.589352-6.525624 9.6815-17.398252 15.452947-29.04757 15.452947-17.149589 0-31.067576-13.870916-31.067576-31.03176 0-5.64865 1.490957-10.924817 4.13211-15.485693-3.137457-17.657148-16.71366-58.992579-32.091906-96.821139-4.78498-11.729136-1.927909-25.196869 7.175423-34.011628 5.903453-5.709025 13.701047-8.719592 21.623483-8.719592 4.254907 0 8.541537 0.868787 12.612249 2.668783 35.416628 15.764032 143.341662 67.030649 182.14441 121.833813 236.450247 3.412726 427.605891 168.847569 427.605891 372.078227C947.346179 653.133623 752.244666 820.180174 512.408299 820.180174zM385.967562 354.69557999999995l189.570543 0c17.147542 0 31.06553 13.902638 31.06553 31.032784 0 17.129122-13.886265 31.03176-31.06553 31.03176L385.967562 416.760125c-17.149589 0-31.067576-13.902638-31.067576-31.03176C354.899986 368.59719500000006 368.817973 354.69557999999995 385.967562 354.69557999999995zM385.967562 478.824669l248.53447 0c17.180288 0 31.067576 13.902638 31.067576 31.032784 0 17.129122-13.886265 31.03176-31.067576 31.03176L385.967562 540.8892129999999c-17.149589 0-31.067576-13.902638-31.067576-31.03176C354.899986 492.726284 368.817973 478.824669 385.967562 478.824669z"  horiz-adv-x="1024" />

    
    <glyph glyph-name="header" unicode="&#59629;" d="M944-132 944 732 80 732l0-864L944-132zM904.7-92.7 119.3-92.7 119.3 435.7l785.5 0L904.8-92.7zM904.7 476.1l-69 0 69 146.4L904.7 476.1zM792.9 476.1l-73.8 0 102.3 216.6 73.8 0L792.9 476.1zM675 476.1l-73.8 0 102.3 216.6 73.8 0L675 476.1zM557.2 476.1l-73.8 0 102.3 216.6 73.8 0L557.2 476.1zM439.4 476.1l-73.8 0 101.2 216.6 73.8 0L439.4 476.1zM321.6 476.1l-73.8 0 102.3 216.6 73.8 0L321.6 476.1zM203.8 476.1 130 476.1l102.3 216.6 73.8 0L203.8 476.1zM119.3 692.7l69 0-66.6-142.8-1.2-2.4L120.5 692.7 119.3 692.7z"  horiz-adv-x="1024" />

    
    <glyph glyph-name="icon" unicode="&#58882;" d="M559.557644 263.084229c-1.176802 1.177825-2.744507 1.826602-4.409426 1.826602-1.63115 0-3.006474-0.582261-4.26821-1.849114l-0.004093-0.00614c-0.016373 0.01842-0.032746 0.033769-0.050142 0.050142-1.223874 1.215688-2.593058 1.805112-4.184299 1.805112-1.665942 0-3.232624-0.647753-4.411473-1.826602-1.176802-1.176802-1.824555-2.743484-1.824555-4.409426 0-1.662873 0.647753-3.228531 1.820462-4.405333l7.259334-7.318686c0.369414-0.372483 0.88209-0.587378 1.408069-0.587378s1.039679 0.214894 1.408069 0.587378l7.257288 7.315616c1.175779 1.177825 1.824555 2.743484 1.824555 4.408403C561.385269 260.340745 560.735469 261.906403 559.557644 263.084229zM882.950032 639.031577c-50.335409 50.380434-117.340475 78.112032-188.531887 78.112032-69.737294 0-128.581494-24.910343-182.507684-79.056544l-0.169869-0.251733c-0.679475 0.76748-1.411139 1.447978-2.134617 2.134617-52.345182 51.961442-110.886483 77.17366-178.916902 77.17366-71.236438 0-138.233318-27.686573-188.613752-78.112032-50.336432-50.336432-78.030168-117.296473-78.030168-188.532911 0-71.102385 27.693736-138.063449 77.853136-188.362019L452.304921-50.827227c15.803941-15.936971 37.730323-25.125237 60.20315-25.125237 22.481014 0 44.444235 9.188266 60.210313 25.125237L883.030873 262.010781c50.299593 50.380434 78.031191 117.296473 78.031191 188.487885C961.062064 521.735104 933.28544 588.695145 882.950032 639.031577z"  horiz-adv-x="1024" />

    
    <glyph glyph-name="popup" unicode="&#59249;" d="M551.384615 812 551.384615 181.846154 1102.769231 181.846154 1102.769231 812 551.384615 812ZM1024 260.615385 630.153846 260.615385 630.153846 654.461538 1024 654.461538 1024 260.615385ZM866.461538 103.076923 866.461538-133.230769 78.769231-133.230769 78.769231 496.923077 472.615385 496.923077 472.615385 654.461538 0 654.461538 0-212 945.230769-212 945.230769 103.076923 866.461538 103.076923Z"  horiz-adv-x="1103" />

    
    <glyph glyph-name="table" unicode="&#58887;" d="M807.846 694.453h-592.286c-92.768 0-167.695-74.928-167.695-167.695v-476.921c0-92.768 74.928-168.29 167.695-168.29h592.286c92.768 0 168.29 75.523 168.29 168.29v476.921c0 92.768-75.523 167.695-168.29 167.695zM77.597 49.837v406.156h179.589v-544.713h-41.627c-76.116-0.001-137.962 62.439-137.962 138.556zM488.511-88.721h-201.592l0 176.021h201.592c-0 0-0-176.021-0-176.021zM488.511 117.034h-201.592l0 154.613h201.592c-0 0-0-154.613-0-154.613zM488.511 301.38h-201.592v154.613h201.592c0 0 0-154.613 0-154.613zM719.835-88.721h-201.592v176.021h201.592l0-176.021zM719.835 117.034h-201.592v154.613h201.592l0-154.613zM719.835 301.38h-201.592v154.613h201.592l0-154.613zM946.403 49.837c0-76.117-62.44-138.557-138.557-138.557h-58.277v176.021h196.834v-37.464zM946.403 117.034h-196.834v154.613h196.834v-154.613zM946.403 301.38h-196.834v154.613h196.834v-154.613zM946.403 485.727h-868.805v41.031c0 76.117 61.845 137.963 137.963 137.963h592.286c76.117 0 138.557-61.845 138.557-137.963l-0-41.031z"  horiz-adv-x="1024" />

    
    <glyph glyph-name="dialog" unicode="&#59248;" d="M512 793.6C286.72 793.6 102.4 632.3199999999999 102.4 435.2c0-112.64 58.88-215.04 153.6-279.04L256-25.600000000000023l179.2 110.08c25.6-5.12 51.2-7.68 76.8-7.68 225.28 0 409.6 161.28 409.6 358.4C921.6 632.3199999999999 737.28 793.6 512 793.6zM640 307.20000000000005L384 307.20000000000005c-15.36 0-25.6 10.24-25.6 25.6 0 15.36 10.24 25.6 25.6 25.6l256 0c15.36 0 25.6-10.24 25.6-25.6C665.6 317.44000000000005 655.36 307.20000000000005 640 307.20000000000005zM691.2 460.8L332.8 460.8c-15.36 0-25.6 10.24-25.6 25.6 0 15.36 10.24 25.6 25.6 25.6l358.4 0c15.36 0 25.6-10.24 25.6-25.6C716.8 471.04 706.56 460.8 691.2 460.8z"  horiz-adv-x="1024" />

    
    <glyph glyph-name="clock" unicode="&#58883;" d="M738.457 413.858h-184.065v182.722c0 23.718-19.229 42.946-42.947 42.946-23.718 0-42.946-19.228-42.946-42.946l0-227.012c0-23.718 19.228-42.946 42.946-42.946 3.626 0 7.125 0.498 10.488 1.344h216.524c23.718 0 42.947 19.227 42.947 42.946-0.001 23.719-19.23 42.947-42.947 42.947zM874.34 23.725l-74.928 63.564c72.841 73.572 117.83 174.771 117.83 286.482 0 224.893-182.313 407.206-407.207 407.206-224.893 0-407.205-182.313-407.205-407.206 0-111.688 44.969-212.867 117.785-286.437l-61.308-73.494c-13.649-16.362-11.45-40.689 4.912-54.334 16.362-13.648 40.687-11.449 54.336 4.912l61.26 73.437c65.488-44.967 144.779-71.289 230.221-71.289 85.001 0 163.916 26.050 229.206 70.594l85.186-72.269c16.247-13.782 40.587-11.787 54.374 4.462 13.781 16.246 11.782 40.589-4.462 54.373zM302.738 116.953c-1.218 1.352-2.54 2.638-3.978 3.837-1.453 1.213-2.971 2.292-4.536 3.256-69.97 60.52-114.243 149.95-114.243 249.724 0 182.284 147.772 330.052 330.053 330.052 182.284 0 330.054-147.768 330.054-330.052 0-182.284-147.771-330.052-330.054-330.052-78.526 0-150.634 27.441-207.296 73.235zM330.073 780.975c0 0-124.305 94.294-227.176-25.723 0 0-85.726-128.589 0-197.171 0 0.001 77.152 184.32 227.176 222.893zM917.907 550.090c0 0 98.75 120.794-17.446 227.961 0 0-125.387 90.344-197.040 7.168-0-0.001 181.391-83.803 214.486-235.129z"  horiz-adv-x="1024" />

    
    <glyph glyph-name="check" unicode="&#58890;" d="M928.589 582.659l0 0-480.156-496.712c-11.346-11.712-27.003-18.959-44.282-18.959-17.31 0-32.967 7.247-44.313 18.959l0 0-271.378 280.754c-11.346 11.712-18.35 27.922-18.35 45.81 0 35.777 28.043 64.8 62.63 64.8 17.309 0 32.937-7.248 44.282-18.991l0 0 227.127-234.915 435.876 450.872c11.346 11.743 27.002 18.991 44.281 18.991 34.588 0 62.632-28.991 62.632-64.8 0-17.889-7.003-34.067-18.35-45.809z"  horiz-adv-x="1024" />

    
    <glyph glyph-name="radio" unicode="&#58902;" d="M511.705799 416.940227m-95.175663 0a93.008 93.008 0 1 0 190.351326 0 93.008 93.008 0 1 0-190.351326 0ZM511.705799 708.607052c39.415708 0 77.602426-7.698333 113.502054-22.883173 34.720779-14.685467 65.921385-35.728736 92.737124-62.544475s47.859008-58.017368 62.544475-92.737124c15.183817-35.898605 22.88215-74.086345 22.88215-113.502054s-7.698333-77.603449-22.88215-113.502054c-14.686491-34.720779-35.728736-65.921385-62.544475-92.737124s-58.016345-47.859008-92.737124-62.544475c-35.899628-15.183817-74.086345-22.88215-113.502054-22.88215s-77.602426 7.698333-113.502054 22.88215c-34.720779 14.686491-65.921385 35.728736-92.737124 62.544475s-47.859008 58.017368-62.544475 92.737124c-15.183817 35.898605-22.883173 74.086345-22.883173 113.502054s7.698333 77.602426 22.883173 113.502054c14.685467 34.720779 35.728736 65.921385 62.544475 92.737124s58.017368 47.859008 92.737124 62.544475C434.103374 700.907697 472.290091 708.607052 511.705799 708.607052M511.705799 800.70461c-211.94718 0-383.76336-171.817204-383.76336-383.76336 0-211.94718 171.817204-383.76336 383.76336-383.76336 211.94718 0 383.76336 171.816181 383.76336 383.76336C895.46916 628.887406 723.652979 800.70461 511.705799 800.70461L511.705799 800.70461z"  horiz-adv-x="1024" />

    
    <glyph glyph-name="scan" unicode="&#58973;" d="M0 844.8C0 873.076979 22.899552 896 51.254499 896L358.345502 896C386.65258 896 409.6 873.019441 409.6 844.8 409.6 816.523021 386.700448 793.6 358.345502 793.6L51.254499 793.6C22.947421 793.6 0 816.580559 0 844.8ZM614.4 844.8C614.4 873.076979 637.299552 896 665.654498 896L972.745502 896C1001.05258 896 1024 873.019441 1024 844.8 1024 816.523021 1001.100448 793.6 972.745502 793.6L665.654498 793.6C637.34742 793.6 614.4 816.580559 614.4 844.8ZM0-76.79999999999995C0-48.52302099999997 22.899552-25.600000000000023 51.254499-25.600000000000023L358.345502-25.600000000000023C386.65258-25.600000000000023 409.6-48.580558999999994 409.6-76.79999999999995 409.6-105.07697900000005 386.700448-128 358.345502-128L51.254499-128C22.947421-128 0-105.01944100000003 0-76.79999999999995ZM614.4-76.79999999999995C614.4-48.52302099999997 637.299552-25.600000000000023 665.654498-25.600000000000023L972.745502-25.600000000000023C1001.05258-25.600000000000023 1024-48.580558999999994 1024-76.79999999999995 1024-105.07697900000005 1001.100448-128 972.745502-128L665.654498-128C637.34742-128 614.4-105.01944100000003 614.4-76.79999999999995ZM102.4 384C102.4 412.276979 125.380819 435.2 153.644629 435.2L870.355371 435.2C898.656998 435.2 921.6 412.219441 921.6 384 921.6 355.723021 898.619181 332.79999999999995 870.355371 332.79999999999995L153.644629 332.79999999999995C125.343002 332.79999999999995 102.4 355.78055900000004 102.4 384ZM51.2 896C79.476979 896 102.4 873.100448 102.4 844.745501L102.4 537.654498C102.4 509.34742 79.419441 486.4 51.2 486.4 22.923021 486.4 0 509.299552 0 537.654498L0 844.745501C0 873.052579 22.980559 896 51.2 896ZM972.8 896C1001.076979 896 1024 873.100448 1024 844.745501L1024 537.654498C1024 509.34742 1001.019441 486.4 972.8 486.4 944.523021 486.4 921.6 509.299552 921.6 537.654498L921.6 844.745501C921.6 873.052579 944.580559 896 972.8 896ZM51.2 281.6C79.476979 281.6 102.4 258.70044800000005 102.4 230.345502L102.4-76.74550199999999C102.4-105.05258000000003 79.419441-128 51.2-128 22.923021-128 0-105.10044800000003 0-76.74550199999999L0 230.345502C0 258.65257999999994 22.980559 281.6 51.2 281.6ZM972.8 281.6C1001.076979 281.6 1024 258.70044800000005 1024 230.345502L1024-76.74550199999999C1024-105.05258000000003 1001.019441-128 972.8-128 944.523021-128 921.6-105.10044800000003 921.6-76.74550199999999L921.6 230.345502C921.6 258.65257999999994 944.580559 281.6 972.8 281.6Z"  horiz-adv-x="1024" />

    
    <glyph glyph-name="tab" unicode="&#59650;" d="M922.399 822.368 421.153 822.368C408.789 864.54 369.757 895.429 323.639 895.429l-76.486 0L101.601 895.429C45.578 895.429 0 849.852 0 793.828l0-819.656c0-56.023 45.578-101.602 101.601-101.602l820.798 0c56.023 0 101.601 45.578 101.601 101.602L1024 720.767C1024 776.791 978.423 822.368 922.399 822.368zM966.921 720.767l0-46.805L717.485 673.962l0 91.327 204.914 0C946.949 765.289 966.921 745.316 966.921 720.767zM425.24 673.962l0 91.327 235.167 0 0-91.327L425.24 673.962zM101.601 838.35l145.552 0 76.486 0c24.549 0 44.522-19.973 44.522-44.522l0-119.866L57.079 673.962 57.079 793.828C57.079 818.378 77.051 838.35 101.601 838.35zM922.399-70.35 101.601-70.35c-24.55 0-44.522 19.973-44.522 44.521L57.079 616.883l909.842 0 0-642.711C966.921-50.377 946.949-70.35 922.399-70.35zM843.059 566.083 183.224 566.083c-40.351 0-73.062-32.709-73.062-73.062l0-440.65c0-40.352 32.711-73.062 73.062-73.062l659.834 0c40.352 0 73.062 32.711 73.062 73.062l0 440.65C916.12 533.373 883.41 566.083 843.059 566.083zM879.59 52.371c0-20.145-16.388-36.531-36.531-36.531L183.224 15.84c-20.143 0-36.531 16.387-36.531 36.531l0 440.65c0 20.144 16.388 36.531 36.531 36.531l659.834 0c20.144 0 36.531-16.387 36.531-36.531L879.589 52.371z"  horiz-adv-x="1024" />

    
    <glyph glyph-name="qrcode" unicode="&#58920;" d="M134.144 1.024000000000001l348.16 0 0 348.16-348.16 0L134.144 1.024000000000001zM203.776 279.552l208.896 0 0-208.896L203.776 70.65599999999995 203.776 279.552zM273.408 209.91999999999996l69.632 0 0-69.632-69.632 0 0 69.632ZM691.2 70.65599999999995l69.632 0 0-69.632-69.632 0 0 69.632ZM830.464 70.65599999999995l69.632 0 0-69.632-69.632 0 0 69.632ZM830.464 279.552L760.832 279.552 760.832 349.18399999999997 551.936 349.18399999999997 551.936 1.024000000000001 621.568 1.024000000000001 621.568 209.91999999999996 691.2 209.91999999999996 691.2 140.288 900.096 140.288 900.096 349.18399999999997 900.096 349.18399999999997 830.464 349.18399999999997ZM134.144 418.816l348.16 0 0 348.16-348.16 0L134.144 418.816zM203.776 697.344l208.896 0 0-208.896L203.776 488.448 203.776 697.344zM273.408 627.712l69.632 0 0-69.632-69.632 0 0 69.632ZM551.936 766.976l0-348.16 348.16 0 0 348.16L551.936 766.976zM830.464 488.448L621.568 488.448 621.568 697.344l208.896 0L830.464 488.448zM691.2 627.712l69.632 0 0-69.632-69.632 0 0 69.632Z"  horiz-adv-x="1024" />

    
    <glyph glyph-name="loading" unicode="&#58952;" d="M249.457 894.044c57.375 0 103.875-46.51 103.875-103.885 0-57.364-46.51-103.875-103.875-103.875s-103.885 46.51-103.885 103.875c0 57.375 46.51 103.885 103.885 103.885v0zM98.13 642.857c52.972 0 95.908-42.926 95.908-95.898 0-52.982-42.936-95.908-95.908-95.908s-95.908 42.926-95.908 95.908c-0 52.972 42.936 95.898 95.908 95.898v0zM100.465 382.822c48.568 0 87.941-39.373 87.941-87.951 0-48.558-39.373-87.931-87.941-87.931s-87.941 39.373-87.941 87.931c-0.010 48.579 39.363 87.951 87.941 87.951v0zM209.818 178.248c44.165 0 79.974-35.799 79.974-79.985 0-44.155-35.809-79.985-79.974-79.985-44.175 0-79.985 35.82-79.985 79.985 0 44.186 35.809 79.985 79.985 79.985v0zM375.47 52.705c39.762 0 72.018-32.236 72.018-72.018 0-39.772-32.246-72.008-72.018-72.008-39.772 0-72.018 32.236-72.018 72.008 0 39.782 32.236 72.018 72.018 72.018v0zM556.442 5.939c35.369 0 64.041-28.682 64.041-64.051s-28.672-64.051-64.041-64.051c-35.369 0-64.041 28.682-64.041 64.051s28.672 64.051 64.041 64.051v0zM724.357 24.433c30.976 0 56.084-25.108 56.084-56.084 0-30.956-25.098-56.074-56.084-56.074-30.956 0-56.074 25.108-56.074 56.074 0.010 30.976 25.119 56.084 56.074 56.084v0zM862.444 91.525c26.583 0 48.118-21.545 48.118-48.108s-21.545-48.118-48.118-48.118c-26.563 0-48.097 21.545-48.097 48.118s21.535 48.108 48.097 48.108v0zM962.99 189.635c22.17 0 40.141-17.981 40.141-40.151s-17.971-40.151-40.141-40.151-40.151 17.981-40.151 40.151 17.981 40.151 40.151 40.151v0zM1024.256 303.688c17.766 0 32.184-14.397 32.184-32.184 0-17.766-14.408-32.174-32.184-32.174-17.777 0-32.184 14.397-32.184 32.174 0.010 17.787 14.408 32.184 32.184 32.184v0zM1048.463 421.56c13.373 0 24.197-10.844 24.197-24.207s-10.834-24.207-24.197-24.207c-13.384 0-24.218 10.844-24.218 24.207s10.834 24.207 24.218 24.207v0z"  horiz-adv-x="1076" />

    
    <glyph glyph-name="list" unicode="&#59024;" d="M250.84 705.428c0-33.263-27.007-60.268-60.268-60.268-33.311 0-60.268 26.975-60.268 60.268 0 33.293 26.956 60.268 60.268 60.268 33.263 0 60.268-27.007 60.268-60.268v0zM291.018 705.428c0 55.452-44.993 100.447-100.447 100.447-55.508 0-100.447-44.969-100.447-100.447 0-55.477 44.938-100.447 100.447-100.447 55.452 0 100.447 44.993 100.447 100.447v0zM434.427 688.245h599.906c11.094 0 20.089 8.994 20.089 20.089s-8.994 20.089-20.089 20.089h-599.906c-11.094 0-20.089-8.994-20.089-20.089s8.994-20.089 20.089-20.089v0zM250.84 384c0-33.262-27.007-60.268-60.268-60.268-33.311 0-60.268 26.975-60.268 60.268 0 33.293 26.956 60.268 60.268 60.268 33.263 0 60.268-27.007 60.268-60.268v0zM291.018 384c0 55.452-44.993 100.447-100.447 100.447-55.508 0-100.447-44.969-100.447-100.447 0-55.477 44.938-100.447 100.447-100.447 55.452 0 100.447 44.993 100.447 100.447v0zM434.427 366.816h599.906c11.094 0 20.089 8.994 20.089 20.089s-8.994 20.089-20.089 20.089h-599.906c-11.094 0-20.089-8.994-20.089-20.089s8.994-20.089 20.089-20.089v0zM250.84 62.572c0-33.262-27.007-60.268-60.268-60.268-33.311 0-60.268 26.975-60.268 60.268 0 33.293 26.956 60.268 60.268 60.268 33.263 0 60.268-27.007 60.268-60.268v0zM291.018 62.572c0 55.452-44.993 100.447-100.447 100.447-55.508 0-100.447-44.969-100.447-100.447 0-55.477 44.938-100.447 100.447-100.447 55.452 0 100.447 44.993 100.447 100.447v0zM434.427 45.424h599.906c11.094 0 20.089 8.994 20.089 20.089s-8.994 20.089-20.089 20.089h-599.906c-11.094 0-20.089-8.994-20.089-20.089s8.994-20.089 20.089-20.089v0z"  horiz-adv-x="1171" />

    
    <glyph glyph-name="input" unicode="&#58948;" d="M260.756839 635.244184l167.493735 0 0-41.875736L260.756839 593.368448 260.756839 635.244184 260.756839 635.244184 260.756839 635.244184zM260.756839 342.127334l167.493735 0 0-41.871643L260.756839 300.255691 260.756839 342.127334 260.756839 342.127334 260.756839 342.127334zM302.632575 593.368448l83.746356 0 0-251.241115-83.746356 0L302.632575 593.368448 302.632575 593.368448 302.632575 593.368448zM846.99054-34.73792 177.00946-34.73792c-46.061059 0-83.747379 37.687344-83.747379 83.747379L93.26208 718.991564c0 46.061059 37.686321 83.747379 83.747379 83.747379l669.981081 0c46.061059 0 83.747379-37.686321 83.747379-83.747379l0-669.982104C930.73792 2.949424 893.051599-34.73792 846.99054-34.73792L846.99054-34.73792 846.99054-34.73792zM139.634224 60.705849c0-27.101241 21.973454-49.070602 49.071625-49.070602l646.589324 0c27.101241 0 49.070602 21.972431 49.070602 49.070602L884.365776 707.295174c0 27.102265-21.973454 49.070602-49.070602 49.070602L188.705849 756.365776c-27.102265 0-49.071625-21.972431-49.071625-49.070602L139.634224 60.705849 139.634224 60.705849zM139.634224 60.705849"  horiz-adv-x="1024" />

    
    <glyph glyph-name="exit" unicode="&#58891;" d="M972.8 384c0-17.4208-13.888-40.3968-25.6-51.2l0 0L768 166.39999999999998l0 0c-10.2144-9.4336-29.9776-18.7136-44.8-18.7136-31.808 0-57.6 26.4576-57.6 59.0848 0 17.4208 7.36 33.088 19.0592 43.9168l0 0L768 320 446.1696 320C410.9312 320 384 348.37760000000003 384 384c0 37.568 24.1152 64 62.1696 64C467.7632 448 768 448 768 448l-83.3408 69.312 0 0.0128C672.9728 528.1408 665.6 543.808 665.6 561.2288c0 32.6272 25.792 59.072 57.6 59.072 14.8224 0 34.5984-9.2928 44.8-18.7008l0 0 179.2-166.4 0 0C958.912 424.384 972.8 401.4336 972.8 384zM460.8 768L179.2 768l0-780.8 281.6 0c41.9328 0 64-19.4048 64-51.2 0-43.2896-21.0688-64-64-64L115.2-128c-37.9904 0-64 26.3808-64 64L51.2 832c0 32.6272 28.0704 64 64 64l345.6 0c41.0624 0 64-23.3728 64-64C524.8 799.4112 501.6704 768 460.8 768z"  horiz-adv-x="1024" />

    
    <glyph glyph-name="loading1" unicode="&#58884;" d="M0.85 383.57399999999996c0-278.507 222.592-505.024 499.563-511.424-241.685 5.91-435.605 189.675-435.606 415.51 0 229.547 200.427 415.659 447.616 415.659 52.971 0 95.936 42.944 95.936 95.915 0 52.95-42.965 95.915-95.936 95.915-282.539 0.003-511.573-229.035-511.573-511.574ZM1024 383.573c0 278.507-222.592 505.024-499.563 511.403 241.664-5.888 435.627-189.653 435.627-415.488 0-229.547-200.448-415.659-447.637-415.659-52.95 0-95.915-42.965-95.915-95.936 0-52.928 42.944-95.894 95.915-95.893 282.539 0 511.573 229.035 511.573 511.573Z"  horiz-adv-x="1024" />

    
    <glyph glyph-name="map" unicode="&#58921;" d="M511.999488-62.10726699999998c-7.590885 0-14.82259 3.302209-19.803022 9.036817C479.997634-39.016362999999956 193.469851 293.63183000000004 193.469851 515.0619879999999c0 175.636183 142.893454 318.528614 318.528614 318.528614 175.637206 0 318.528614-142.892431 318.528614-318.528614 0-221.430158-286.527782-554.078351-298.726615-568.132438C526.822079-58.80608099999995 519.590374-62.10726699999998 511.999488-62.10726699999998zM511.999488 781.160485c-146.732899 0-266.097474-119.377878-266.097474-266.098497 0-170.279175 201.326285-430.655344 266.097474-510.017856 64.771189 79.363536 266.097474 339.738681 266.097474 510.017856C778.096962 661.7815840000001 658.731364 781.160485 511.999488 781.160485zM511.999488 343.804533c-92.701309 0-168.122045 75.407434-168.122045 168.102602 0 92.695169 75.420737 168.103626 168.122045 168.103626 92.689029 0 168.097486-75.407434 168.097486-168.103626C680.095951 419.211966 604.688517 343.804533 511.999488 343.804533zM511.999488 627.579621c-63.798025 0-115.691929-51.893904-115.691929-115.672486 0-63.778582 51.893904-115.672486 115.691929-115.672486 63.772442 0 115.665323 51.893904 115.665323 115.672486C627.664811 575.6857170000001 575.771931 627.579621 511.999488 627.579621z"  horiz-adv-x="1024" />

    
    <glyph glyph-name="actionsheet" unicode="&#59009;" d="M179.540607 499.093295c-63.262836 0-114.543779-51.27992-114.543779-114.543779 0-63.263859 51.280944-114.545826 114.543779-114.545826 63.263859 0 114.544803 51.280944 114.544803 114.545826C294.08541 447.813375 242.804467 499.093295 179.540607 499.093295zM179.540607 318.403003c-36.560684 0-66.146513 29.583782-66.146513 66.146513 0 36.561707 29.585829 66.146513 66.146513 66.146513 36.561707 0 66.146513-29.585829 66.146513-66.146513C245.68712 347.987808 216.102315 318.403003 179.540607 318.403003zM512.237919 499.093295c-63.262836 0-114.543779-51.27992-114.543779-114.543779 0-63.263859 51.280944-114.545826 114.543779-114.545826 63.264882 0 114.546849 51.280944 114.546849 114.545826C626.784768 447.813375 575.502801 499.093295 512.237919 499.093295zM512.237919 318.403003c-36.560684 0-66.144466 29.583782-66.144466 66.146513 0 36.561707 29.584806 66.146513 66.144466 66.146513 36.561707 0 66.147536-29.585829 66.147536-66.146513C578.385455 347.987808 548.799626 318.403003 512.237919 318.403003zM844.9383 499.093295c-63.263859 0-114.545826-51.27992-114.545826-114.544803 0-63.262836 51.280944-114.544803 114.545826-114.544803 63.262836 0 114.543779 51.280944 114.543779 114.544803C959.482079 447.813375 908.202159 499.093295 844.9383 499.093295zM844.9383 318.403003c-36.561707 0-66.146513 29.583782-66.146513 66.145489 0 36.561707 29.584806 66.147536 66.146513 66.147536s66.145489-29.585829 66.145489-66.147536C911.083789 347.987808 881.500007 318.403003 844.9383 318.403003z"  horiz-adv-x="1024" />

    
    <glyph glyph-name="checknormal" unicode="&#59018;" d="M512-42.666667C277.333333-42.666667 85.333333 149.333333 85.333333 384S277.333333 810.666667 512 810.666667s426.666667-192 426.666667-426.666667S746.666667-42.666667 512-42.666667zM512 768C300.8 768 128 595.2 128 384s172.8-384 384-384 384 172.8 384 384S723.2 768 512 768z"  horiz-adv-x="1024" />

    
    <glyph glyph-name="search" unicode="&#59154;" d="M1007.174647-35.53544599999998l-282.586056 282.885617c52.023793 67.900536 82.878596 152.87606 82.878596 245.041053 0 222.873525-180.735251 403.608776-403.608776 403.608776S0.249634 715.2647489999999 0.249634 492.391224c0-222.873525 180.735251-403.608776 403.608776-403.608776 92.264846 0 177.240371 30.954656 245.240761 82.97845l282.586056-282.885617c10.484642-10.484642 18.572794-15.377474 37.245441-15.377474s27.959044 5.392101 38.044271 15.577182c10.284934 10.284934 15.677036 19.171916 15.776889 38.243979C1022.751828-53.608971 1017.759142-46.11994100000004 1007.174647-35.53544599999998zM403.858411 196.42476799999997c-163.460556 0-295.966455 132.5059-295.966455 295.966455s132.5059 295.966455 295.966455 295.966455S699.824866 655.85178 699.824866 492.391224 567.318966 196.42476799999997 403.858411 196.42476799999997z"  horiz-adv-x="1024" />

    
    <glyph glyph-name="close" unicode="&#59148;" d="M896.128 731.84L548.458667 384.170667l347.456-347.477333-36.650667-36.629333L511.808 347.541333 164.138667-0.12800000000004275l-36.245333 36.245333 347.669333 347.669333L127.872 731.477333l36.650667 36.629333 347.669333-347.669333L859.861333 768.106667 896.128 731.84z"  horiz-adv-x="1024" />

    
    <glyph glyph-name="message" unicode="&#58893;" d="M512 341.333333A469.333333 469.333333 0 0 1 42.666667-128h85.333333a384 384 0 0 0 768 0h85.333333A469.333333 469.333333 0 0 1 512 341.333333zM810.666667 554.666667a298.666667 298.666667 0 1 1-597.333334 0 298.666667 298.666667 0 0 1 597.333334 0z m-512 0a213.333333 213.333333 0 1 0 426.666666 0 213.333333 213.333333 0 0 0-426.666666 0z"  horiz-adv-x="1024" />

    
    <glyph glyph-name="toast" unicode="&#58894;" d="M257.6384 663.9104c229.9904 0.9216 459.9808 0 689.9712 0.4608 22.3744 1.4336 44.8512-9.8304 56.6272-28.9792 15.0528-22.9888 11.4176-55.8592-8.0384-75.1616-12.4416-13.5168-31.0272-19.7632-49.1008-18.8416-228.7104 0.3072-457.4208-0.2048-686.1312 0.2048-34.0992 0.3584-62.464 33.9456-58.112 67.5328 2.304 28.2112 26.5728 52.5824 54.784 54.784zM52.992 442.4704c7.6288 2.6624 15.8208 2.9184 23.8592 3.072 114.432-0.256 228.864 0.0512 343.296-0.1536 27.4944 0.4608 53.1968-19.9168 59.4432-46.6432 10.5472-36.7616-20.992-77.1584-59.136-76.1344-116.3264-0.1024-232.6528-0.0512-348.928 0-27.2896-0.4096-53.1968 20.0704-59.2896 46.592-8.3968 30.208 10.8544 64.3072 40.7552 73.2672zM570.5728 441.856c32.6656 7.6288 66.816 1.6896 100.096 3.6864 24.5248 2.5088 51.0464-6.5024 64.2048-28.3648 18.5344-27.1872 9.472-67.4304-18.2272-84.7872-17.92-12.6976-40.8576-9.5744-61.5424-9.8816-24.064 0.6144-48.2304-1.024-72.2432 0.7168-31.1808 3.5328-55.6544 34.5088-52.6336 65.5872 1.6384 23.6032 18.2784 44.9536 40.3456 53.0432zM154.7776 224.61440000000005c26.7264 4.096 53.9648 1.1264 80.9472 1.9456 29.9008 1.2288 57.3952-23.04 61.3888-52.3776 4.7616-27.2896-12.1344-55.6544-37.4784-66.048-25.9072-8.6528-53.8624-2.816-80.64-4.5568-26.2144-2.2528-53.8112 11.4688-64.1024 36.352-16.1792 32.8192 4.5056 76.0832 39.8848 84.6848zM416.8704 222.0032c15.5648 6.4512 32.768 4.2496 49.2032 4.608 135.0144-0.1536 270.08 0 405.0944-0.1024 25.0368 0.6656 49.2032-15.7696 57.9072-39.2192 15.9744-36.9152-13.9776-82.7904-54.016-83.456-144.9984-0.3584-289.9968-0.1024-434.9952-0.1024-26.8288-0.4096-52.0704 19.2-58.9824 45.056-8.8064 28.8256 7.8336 62.2592 35.7888 73.216z"  horiz-adv-x="1024" />

    
    <glyph glyph-name="scrollable" unicode="&#59686;" d="M117.35040000000015 668.0064l-9.267199999999987 19.6096a657.3056 657.3056 0 0 0 328.55039999999997 59.18719999999979c6.655999999999998-0.5120000000000022 14.0288 4.966399999999995 14.745600000000005 11.110399999999995 0.6656000000000031 6.144-5.632 13.056-12.646399999999993 13.568000000000003a682.496 682.496 0 0 1-341.24800000000005-61.43999999999983l-11.878399999999992 25.24160000000001c-1.587199999999998 3.379200000000001-3.7887999999999966 6.144000000000001-8.140799999999999 5.683200000000003-4.352-0.4607999999999972-6.656000000000001-2.457599999999996-8.294400000000003-6.246399999999998-7.628800000000006-17.56159999999999-14.38720000000001-35.174399999999984-20.326400000000017-52.83839999999998-1.740800000000002-5.171199999999999 1.2799999999999931-10.24 6.604799999999995-11.366400000000002 18.0736-3.993600000000008 35.6864-8.70400000000002 52.735999999999976-14.182400000000023 3.6352-1.1776000000000009 6.246399999999999-0.7680000000000038 8.857600000000001 2.047999999999996 2.662400000000001 2.8671999999999986 1.8944000000000014 6.1952 0.30720000000000347 9.625599999999999z m507.5967999999996-615.4240000000003c43.16160000000002 40.39679999999998 113.1520000000001 229.5295999999999 116.07040000000008 237.5679999999999a43.8784 43.8784 0 0 1 2.662400000000007 15.257599999999996c7.105427357601002e-15 21.76-15.615999999999973 43.1616-37.11999999999997 50.89280000000002a88.4224 88.4224 0 0 1-21.401599999999995 3.4816000000000074 59.187200000000004 59.187200000000004 0 0 1-37.01759999999997 71.32160000000002c-12.851199999999999 4.608000000000004-26.6752 4.761600000000001-39.526399999999995 0.40960000000001884a53.6576 53.6576 0 0 1-35.89119999999996 53.60640000000001c-14.950399999999998 5.376000000000008-30.8736 4.505600000000017-44.851200000000006-2.457599999999978l48.79360000000006 148.88959999999997a70.4 70.4 0 0 1 4.403200000000007 24.217599999999997c1.5987211554602254e-14 25.5488-14.796799999999976 46.74560000000001-38.60479999999996 55.347200000000015-31.948799999999984 11.468800000000014-65.48480000000002-5.375999999999969-78.02880000000002-39.423999999999964l-87.8080000000001-255.38559999999995c-7.731199999999999-1.1775999999999964-19.9168-3.993599999999984-36.608000000000004-10.751999999999986-44.28800000000001-17.91999999999998-90.06080000000003-82.12479999999992-90.06080000000009-158.5151999999999-3.552713678800501e-15-15.1552 1.8431999999999817-30.2592 5.427199999999981-44.95360000000001 24.678399999999968-101.01759999999999 75.87839999999994-158.7712 171.31519999999992-193.1264000000001 101.06879999999997-36.35200000000004 153.344 1.6383999999999332 198.2464 43.6224z m-189.5424-19.865599999999887c-87.55199999999999 31.488000000000042-132.5055999999999 82.27840000000003-155.18719999999993 175.30880000000005a164.0448 164.0448 0 0 0-4.710399999999979 39.0144c1.4210854715202004e-14 64.9216 38.502400000000044 120.67839999999995 74.18880000000004 135.11679999999998a192.5632 192.5632 0 0 0 17.3056 6.092799999999991l-28.672-83.4048a12.6464 12.6464 0 0 1 7.987199999999991-16.025600000000004 12.8 12.8 0 0 1 16.230400000000003 7.884799999999995l126.05440000000014 366.5407999999999c7.731200000000008 20.940799999999996 26.265600000000017 30.873599999999985 45.15840000000001 24.06399999999998 18.380799999999997-6.604800000000006 26.777599999999985-25.753600000000013 18.790399999999984-47.56480000000002l-73.57440000000013-224.4608c-1.9968000000000021-6.143999999999998 1.0239999999999938-12.851200000000002 7.014399999999993-15.462400000000002a12.9024 12.9024 0 0 1 16.2816 5.324799999999993l19.097600000000014 33.48479999999999a13.5168 13.5168 0 0 1 0.9216000000000009 1.9455999999999993 34.8672 34.8672 0 0 0 16.99840000000001 19.507199999999994 31.3856 31.3856 0 0 0 24.729600000000005 1.279999999999994 27.904 27.904 0 0 0 19.09759999999999-27.699200000000012c-8.881784197001252e-16-4.608-0.8704000000000036-9.369599999999998-2.6112000000000064-14.079999999999998l-8.704000000000011-23.654399999999992-0.05120000000000001-0.051199999999999975c-2.4064000000000023-6.553599999999999 1.023999999999992-13.824 7.628799999999991-16.1792a12.8512 12.8512 0 0 1 16.384000000000004 7.52639999999999 34.304 34.304 0 0 0 43.67360000000001 20.121599999999987 33.792 33.792 0 0 0 22.42559999999998-31.641600000000007c-1.9984014443252818e-15-3.8911999999999995-0.7168000000000032-7.782399999999998-2.0992000000000024-11.52l-18.94400000000002-51.40479999999999c-2.4064000000000023-6.502399999999998 1.023999999999992-13.824 7.628799999999991-16.1792a12.8 12.8 0 0 1 16.384000000000004 7.52639999999999l11.110400000000013 30.20799999999999a62.15679999999999 62.15679999999999 0 0 0 21.8624-1.7408000000000108c13.721599999999997-4.966400000000005 23.60319999999999-21.70880000000001 19.14879999999999-33.792000000000016-19.55840000000002-53.14559999999999-77.41440000000011-197.6832-109.67040000000009-227.8399999999999-42.188800000000015-39.57759999999997-84.27520000000004-69.73439999999995-171.8784-38.24639999999994zM904.3456000000001 597.9647999999999c2.099199999999999-3.2256000000000005 4.607999999999997-3.9936000000000016 8.448-3.4304000000000037 17.715200000000003 2.611199999999994 35.84 4.454399999999982 54.3232 5.478399999999969a8.6528 8.6528 0 0 1 8.345600000000003 10.188799999999993c-3.020799999999995 18.3296-6.860799999999985 36.8128-11.519999999999968 55.398399999999995-1.0239999999999978 3.9936-2.9695999999999954 6.2976-7.167999999999997 7.475200000000001-4.249599999999999 1.126400000000002-6.8608-1.1775999999999978-8.96-4.300799999999995l-15.820800000000014-22.9888A682.4448 682.4448 0 0 1 605.1840000000002 761.5999999999999c-7.0144 0.6144000000000034-14.336000000000002-5.171199999999995-14.643200000000006-11.366399999999995-0.3072000000000008-6.1952 6.041599999999995-12.800000000000004 12.748799999999992-13.363200000000004a657.5104 657.5104 0 0 0 314.6752-111.51360000000024l-12.288000000000004-17.868799999999993c-2.150400000000001-3.0719999999999987-3.4304000000000037-6.297599999999997-1.3312000000000062-9.5232z"  horiz-adv-x="1024" />

    
    <glyph glyph-name="msg" unicode="&#58899;" d="M1024 383.414L892.686 514.7280000000001c-4.579 131.514-112.351 236.785-244.976 236.785H245.413C109.875 751.513 0 641.639 0 506.1v-245.373c0-135.538 109.875-245.413 245.413-245.413h402.296c132.625 0 240.398 105.281 244.976 236.785L1024 383.414z"  horiz-adv-x="1024" />

    
    <glyph glyph-name="number1" unicode="&#58945;" d="M512 896a512 512 0 1 1 512-512 512 512 0 0 1-512 512z m56.32-768h-64V556.1600000000001L422.4 468.48 384 508.16 512 640h56.32z"  horiz-adv-x="1024" />

    
    <glyph glyph-name="number0" unicode="&#58946;" d="M512 896a512 512 0 1 1 512-512 512 512 0 0 1-512 512z m14.72-768c-128 0-174.72 135.68-174.72 256s49.28 256 174.72 256S704 505.6 704 384s-53.12-256-177.28-256zM526.72 584.96C439.68 584.96 410.24 483.2 410.24 384s29.44-201.6 116.48-201.6S640 285.44000000000005 640 384s-26.24 200.96-113.28 200.96z"  horiz-adv-x="1024" />

    
    <glyph glyph-name="number6" unicode="&#58947;" d="M512 896a512 512 0 1 1 512-512 512 512 0 0 1-512 512z m23.68-768C402.56 128 352 248.96000000000004 352 384s59.52 256 192 256a159.36 159.36 0 0 0 128-59.52l-30.08-46.08a119.68 119.68 0 0 1-101.12 50.56c-92.16 0-133.76-97.28-133.76-192v-19.2A168.96 168.96 0 0 0 545.92 448 146.56 146.56 0 0 0 704 289.91999999999996 159.36 159.36 0 0 0 535.68 128zM532.48 394.88A144 144 0 0 1 414.08 320c5.12-64 36.48-138.24 119.04-138.24A104.96 104.96 0 0 1 640 288a99.84 99.84 0 0 1-107.52 106.88z"  horiz-adv-x="1024" />

    
    <glyph glyph-name="number2" unicode="&#58949;" d="M512 896a512 512 0 1 1 512-512 512 512 0 0 1-512 512z m169.6-768H352.64v50.56C524.8 320 618.88 404.48 618.88 491.52A91.52 91.52 0 0 1 518.4 584.3199999999999a156.8 156.8 0 0 1-128-64l-38.4 40.32A200.96 200.96 0 0 0 518.4 640a148.48 148.48 0 0 0 160.64-148.48c0-103.04-99.2-196.48-232.32-307.84h234.88z"  horiz-adv-x="1024" />

    
    <glyph glyph-name="number4" unicode="&#58950;" d="M512 896c-282.77 0-512-229.23-512-512s229.23-512 512-512c282.77 0 512 229.23 512 512 0 282.77-229.23 512-512 512zM704 256h-72.96v-128h-64v128h-247.040v54.4l222.080 329.6h88.96v-326.4h72.96zM566.4 313.6v267.52l-181.76-267.52h181.76z"  horiz-adv-x="1024" />

    
    <glyph glyph-name="number3" unicode="&#58951;" d="M512 896a512 512 0 1 1 512-512 512 512 0 0 1-512 512z m12.16-768a202.88 202.88 0 0 0-172.16 81.92l35.84 38.4a167.04 167.04 0 0 1 135.04-64c70.4 0 113.28 36.48 113.28 92.8s-49.28 86.4-120.32 86.4h-50.56v55.68h49.92c64 0 112.64 24.32 112.64 81.92S576 584.96 520.32 584.96a163.2 163.2 0 0 1-128-60.16l-33.92 38.4A206.72 206.72 0 0 0 524.8 640c92.8 0 163.84-48 163.84-131.84a118.4 118.4 0 0 0-104.32-115.2 128 128 0 0 0 112-122.88C696.96 188.15999999999997 631.04 128 524.16 128z"  horiz-adv-x="1024" />

    
    <glyph glyph-name="number7" unicode="&#58953;" d="M512 896a512 512 0 1 1 512-512 512 512 0 0 1-512 512z m192-320l-230.4-467.2H396.16l226.56 455.04H320V620.8h384z"  horiz-adv-x="1024" />

    
    <glyph glyph-name="number8" unicode="&#58954;" d="M512 896a512 512 0 1 1 512-512 512 512 0 0 1-512 512z m13.44-768c-96 0-173.44 49.92-173.44 134.4a145.92 145.92 0 0 0 115.2 128A128 128 0 0 0 359.68 512c0 88.96 84.48 128 165.12 128s165.76-39.68 165.76-128a128 128 0 0 0-107.52-119.68 145.92 145.92 0 0 0 115.2-128c0-85.76-78.08-136.32-172.8-136.32zM525.44 364.79999999999995c-29.44-3.84-112-31.36-112-96 0-53.76 52.48-86.4 112-86.4S640 215.67999999999995 640 269.44000000000005c0 64.64-85.12 92.16-114.56 95.36zM630.4 503.04c0 51.2-47.36 81.92-104.96 81.92s-104.32-30.72-104.32-81.92 74.88-80 104.32-85.12c29.44 5.12 104.96 24.96 104.96 85.12z"  horiz-adv-x="1024" />

    
    <glyph glyph-name="number5" unicode="&#58955;" d="M512 896a512 512 0 1 1 512-512 512 512 0 0 1-512 512z m12.16-768a198.4 198.4 0 0 0-172.16 80.64l37.12 42.24a158.72 158.72 0 0 1 135.04-64A106.88 106.88 0 0 1 640 291.84000000000003a104.32 104.32 0 0 1-115.2 108.16 154.24 154.24 0 0 1-112.64-46.72l-44.8 16V640h298.88v-55.68H428.16v-175.36a164.48 164.48 0 0 0 114.56 45.44 151.68 151.68 0 0 0 156.16-160.64A163.2 163.2 0 0 0 524.16 128z"  horiz-adv-x="1024" />

    
    <glyph glyph-name="number9" unicode="&#58956;" d="M512 896c-282.77 0-512-229.23-512-512s229.23-512 512-512c282.77 0 512 229.23 512 512 0 282.77-229.23 512-512 512zM508.16 128c-0.581-0.007-1.268-0.012-1.956-0.012-50.638 0-95.89 23.063-125.824 59.258l29.22 46.354c22.081-30.782 57.756-50.599 98.061-50.599 1.076 0 2.148 0.014 3.217 0.042 95.202-0.003 132.962 100.477 132.962 191.997 0.16 2.868 0.252 6.223 0.252 9.6 0 3.377-0.091 6.732-0.272 10.064-30.348-45.079-80.685-74.143-137.844-74.716-1.725-0.156-4.797-0.252-7.891-0.252-80.943 0-146.56 65.617-146.56 146.56 0 4.148 0.172 8.255 0.51 12.316-0.050 0.269-0.058 1.212-0.058 2.158 0 88.012 71.348 159.36 159.36 159.36 2.259 0 4.507-0.047 6.743-0.14 131.52 0.011 182.72-120.949 182.72-255.989s-60.8-256-192.64-256zM519.68 584.96c-0.954 0.031-2.075 0.049-3.2 0.049-57.968 0-104.96-46.992-104.96-104.96 0-0.017 0-0.034 0-0.051-0.178-2.233-0.28-4.837-0.28-7.466 0-55.14 44.7-99.84 99.84-99.84 3.253 0 6.47 0.156 9.644 0.46 51.926 2.357 96.714 32.456 119.844 75.847-7.609 59.161-38.329 135.961-120.889 135.961z"  horiz-adv-x="1024" />

    
    <glyph glyph-name="number10" unicode="&#58957;" d="M512 896c-282.77 0-512-229.23-512-512s229.23-512 512-512c282.77 0 512 229.23 512 512 0 282.77-229.23 512-512 512zM370.56 136.96h-64v414.72l-77.44-85.12-37.12 38.4 124.16 128h54.4zM656 128c-135.68 0-192 135.68-192 256s53.76 256 192 256 192-134.4 192-256-56.96-256-192-256zM656 584.96c-94.080 0-128-101.76-128-200.96s32-201.6 128-201.6 128 102.4 128 201.6-33.92 200.96-128 200.96z"  horiz-adv-x="1024" />

    
    <glyph glyph-name="icons" unicode="&#59210;" d="M774.7 894.3H252C100.6 894.3 2.7 796.4 2.7 645v-522.7C2.7-29.100000000000023 100.6-127 252-127h522.7c151.4 0 249.3 97.9 249.3 249.3V645C1024 796.4 926.1 894.3 774.7 894.3zM960.4 784c-5.8 8.3-12.3 15.9-19.3 23 6.9-7.2 13.5-14.7 19.3-23z m-62.7-223.3c23.6-50.9 37.3-107.1 38.7-166.5h-145c-2.4 63-25.5 120.9-63.1 166.5h169.4z m-168.6 22.7l91.3 91.3c25.9-27.3 48.4-57.8 66.3-91.3H729.1z m207.2-211.9c-1.7-59.4-15.6-115.6-39.5-166.5h-170c38.1 45.5 61.8 103.3 64.5 166.5h145z m-50.4-189.2c-17.8-32.8-40.1-62.7-65.6-89.6l-89.6 89.6h155.2z m25.2 0h26.7v-207L836.4 76.60000000000002c29.8 31.3 55 66.9 74.7 105.7zM922 205c5.9 13.4 11.2 27.2 15.7 41.3V205H922z m0.8 355.7h14.9V521c-4.3 13.5-9.3 26.8-14.9 39.7z m-10.9 22.7c-19.9 39.5-45.3 75.6-75.5 107.3L937.8 792v-208.7h-25.9z m25.5 227.2c-6.6 6.4-13.5 12.4-21 17.9 7.5-5.5 14.5-11.5 21-17.9z m-222.7 61h60c56.2 0 103.8-15.4 140.9-42.5H714.7V871.6z m0-65.2H920l-99.7-99.7c-31.3 29.7-66.8 54.9-105.6 74.7v25z m0-50.2c32.8-17.8 62.7-40.1 89.6-65.5l-89.6-89.6V756.2z m0-215.3c32-40.8 51.7-91.5 53.9-146.8h-53.9V540.9z m0-169.4h53.9c-2.6-54.6-22.2-104.7-53.9-145.1V371.5z m0-205.3l89.6-89.6c-26.9-25.5-56.8-47.7-89.6-65.5V166.20000000000005z m0-180.3c38.8 19.7 74.4 44.9 105.6 74.7l101.3-101.3h-207v26.6z m-189.2 653c55.6-2.6 106.5-22.9 147.3-55.5H525.5v55.5z m120.8-372.2L541.6 371.5H690c-2.8-40.1-18.7-76.3-43.7-104.8z m0-32L676 205h-73.4c15.9 8 30.5 17.9 43.7 29.7zM539.9 394.2l106.4 106.4c25.4-28.8 41.4-65.6 43.8-106.4H539.9z m65.7 166.5h68.8l-28-28c-12.4 10.9-26.1 20.2-40.8 28z m-80.1-0.4c40.1-2.8 76.3-18.6 104.7-43.7L525.5 411.9V560.3z m0-204.9l104.7-104.7c-28.4-25-64.6-40.9-104.7-43.7V355.4z m0-173.1h145.1c-40.4-31.7-90.5-51.3-145.1-53.9v53.9zM336.4 806.4h35.1c-11.9-4-23.7-8.3-35.1-13.3V806.4z m0-261.8l28-28c-11-12.3-20.3-26-28-40.7v68.7z m0.3-173.1h148.4L380.4 266.70000000000005c-25 28.5-40.9 64.7-43.7 104.8zM424.2 205h-73.4l29.7 29.7c13.1-11.8 27.7-21.7 43.7-29.7z m-87.6 189.2c2.4 40.7 18.5 77.5 43.8 106.4l106.4-106.4H336.6z m43.8 138.4l-28 28h68.8c-14.8-7.7-28.5-17-40.8-28z m-44-241.2c7.7-14.7 17-28.4 28-40.7l-28-28v68.7z m0-317.2c12.9-5.6 26.1-10.5 39.6-14.9h-39.6v14.9z m-311 586.5h42.5v-160.4c-0.1-2-0.3-4.1-0.3-6.1H25.4V560.7z m0-189.2h42.3c0-1.5 0.2-3 0.2-4.5v-162H25.4V371.5z m0-189.2h42.5v-200.9C40.8 18.5 25.4 66 25.4 122.29999999999995v60z m43.1-201.8c5.5-7.5 11.6-14.5 18-21.1-6.5 6.6-12.5 13.7-18 21.1z m21.4-24.6c7.2-7 14.8-13.5 23.1-19.3-8.3 5.8-15.8 12.4-23.1 19.3z m24.9 627.5H90.6v207l99.7-99.7c-30.2-31.8-55.6-67.9-75.5-107.3z m91.5 91.2l91.3-91.3H140c17.9 33.5 40.4 64 66.3 91.3zM103.9 560.7c-5-11.4-9.3-23.2-13.3-35.1v35.1h13.3z m25.1 0h169.4c-37.6-45.6-60.7-103.4-63.1-166.5H90.6v6.1c2.2 57.1 15.7 111.2 38.4 160.4z m106.4-189.2c2.8-63.2 26.4-121 64.5-166.5H129.8c-23.2 49.6-37 104.3-39.2 162v4.5h144.8z m60.5-189.2l-89.6-89.6c-25.5 26.9-47.8 56.8-65.6 89.6h155.2zM104.7 205H90.6v36.7c4.2-12.5 8.8-24.8 14.1-36.7z m10.9-22.7c19.7-38.8 44.9-74.4 74.7-105.7l-99.7-99.7V182.29999999999995h25z m198.1-286.6H252c-55.2 0-102 14.8-139 40.8h200.6v-40.8z m0 63.5H105l101.3 101.3c31.7-30.2 67.8-55.6 107.3-75.5v-25.8z m0 51.1c-33.4 17.9-64 40.5-91.3 66.4l91.3 91.3v-157.7z m0 213.8c-32.7 40.8-52.9 91.8-55.5 147.4h55.5v-147.4z m0 170.1H258c2.3 56.2 22.6 107.8 55.6 149v-149z m0 205.2l-91.3 91.3c27.3 25.9 57.9 48.4 91.3 66.4v-157.7z m0 182.8c-39.5-19.9-75.6-45.3-107.3-75.5l-99.7 99.7h207v-24.2z m0 46.9H111c-16.6-12-31-26.4-43.1-43.1v-202.7H25.4V645c0 137.7 89 226.6 226.6 226.6h61.7v-42.5z m189.1-933.4H336.4v40.8h166.5v-40.8z m0 64.9c-59.3 1.5-115.6 15.2-166.5 38.7V168.70000000000005c45.6-37.6 103.4-60.7 166.5-63.1v-145z m0 167.7c-55.2 2.3-106 22-146.8 54h146.8v-54z m0 78.6c-40.7 2.4-77.6 18.4-106.4 43.8l106.4 106.4v-150.2z m0 203.3L396.5 516.6c28.8 25.4 65.7 41.4 106.4 43.8v-150.2z m0 173.2h-149c41.2 33 92.8 53.3 149 55.6v-55.6z m0 78.3c-63-2.4-120.9-25.5-166.5-63.1V768c49.3 22.8 103.6 36.3 160.8 38.4h5.7v-144.7z m0 167.7c-1.9 0-3.8-0.2-5.7-0.3H336.4V871.6h166.5v-42.2zM692-104.29999999999995H525.5v40.8H692v-40.8z m0 63.5h-41.3c14.1 4.6 27.8 9.8 41.3 15.7v-15.7z m0 40.9c-50.9-23.8-107.1-37.8-166.5-39.5v145c63.2 2.8 121 26.4 166.5 64.5v-170z m0 220.9l-29.7 29.7c11.8 13.2 21.7 27.8 29.7 43.8V221z m0 251.8c-8 15.9-17.9 30.6-29.7 43.8l29.7 29.7v-73.5z m0 124.3c-45.5 38.1-103.3 61.8-166.5 64.5V806.4h4c57.9-2.2 112.8-16 162.5-39.3v-170z m0 195.2c-12 5.3-24.3 9.9-36.8 14.1H692v-14.1z m0 36.8H529.5c-1.3 0-2.7 0.2-4 0.2V871.6H692v-42.5z m82.7-933.4h-60v40.8h198.9c-36.9-26-83.7-40.8-138.9-40.8z m139 40.9c18.2 12.9 33.9 28.5 46.7 46.7-12.8-18.2-28.5-33.9-46.7-46.7z m87.6 185.7c0-55.2-14.8-102-40.8-138.9V182.29999999999995h40.8v-60z m0 82.7h-40.8V371.5h40.8V205z m0 189.2h-40.8V560.7h40.8v-166.5z m0 189.2h-40.8V783.9c26-36.9 40.8-83.8 40.8-138.9v-61.6z"  horiz-adv-x="1024" />

    
    <glyph glyph-name="star" unicode="&#58966;" d="M767.104-63.936000000000035a31.9 31.9 0 0 0-15.52 4.032L510.272 73.952 268.448-59.072c-10.72-5.92-23.904-5.152-33.888 1.92a32.023 32.023 0 0 0-13.12 31.328l46.88 284.736-196.448 202.08c-8.256 8.512-11.168 20.928-7.456 32.192a32.018 32.018 0 0 0 25.024 21.632l155.072 26.592c17.632 2.944 33.984-8.736 36.96-26.144 2.976-17.408-8.704-33.952-26.144-36.96l-95.168-16.32 165.344-170.08c7.072-7.296 10.272-17.504 8.64-27.488l-38.816-235.68L494.944 138.55999999999995c9.632 5.312 21.344 5.312 30.944-0.064l199.168-110.464-38.016 235.776c-1.632 10.016 1.632 20.224 8.704 27.456L860.416 459.52l-225.664 34.816c-10.56 1.632-19.584 8.416-24.128 18.08l-99.2 212.384L411.36 512.96c-7.552-16-26.624-22.816-42.624-15.264-15.968 7.552-22.816 26.624-15.264 42.624L482.624 813.76c5.312 11.2 16.576 18.336 28.928 18.336h0.064a32.017 32.017 0 0 0 28.928-18.464l120.8-258.624L931.68 513.28c11.872-1.824 21.696-10.144 25.504-21.504 3.776-11.36 0.864-23.936-7.488-32.48L752.768 258.08000000000004l45.92-284.864c1.952-12.096-3.2-24.256-13.216-31.296-5.472-3.936-11.904-5.856-18.368-5.856z"  horiz-adv-x="1024" />

    
    <glyph glyph-name="fly" unicode="&#59539;" d="M926.4 336L152 748.8c-11.2 5.6-24.8-3.2-23.2-15.2l60-714.4c0.8-11.2 12-17.6 22.4-13.6l249.6 104.8 136.8-155.2c8.8-9.6 24-5.6 27.2 6.4L689.6 208l235.2 99.2c12 4.8 12.8 22.4 1.6 28.8z m-688.8-266.4l-56 544 256-456-200-88z m-80 656l488-504-48-192m88 232l-400 384 560-320-160-64z"  horiz-adv-x="1024" />

    
    <glyph glyph-name="earth" unicode="&#59563;" d="M512 832C264.8 832 64 631.2 64 384s200.8-448 448-448 448 200.8 448 448S759.2 832 512 832z m-46.4-831.2c-189.6 23.2-336 184.8-336 380.8 0 29.6 4 58.4 10.4 85.6l229.6-229.6v-48c0-52.8 43.2-96 96-96v-92.8z m331.2 124c-12 39.2-48 67.2-91.2 67.2h-48V335.20000000000005c0 27.2-21.6 48.8-48.8 48.8H313.6V480h103.2c27.2 0 48.8 21.6 48.8 48.8V624H560c53.6 0 97.6 44 97.6 97.6v18.4c140.8-56.8 240-194.4 240-356 0-100-37.6-190.4-100.8-259.2z"  horiz-adv-x="1024" />

    
    <glyph glyph-name="checked" unicode="&#59575;" d="M256-128h768V640l-768-768z m493.6 108.8L704-64l-45.6 45.6L576 64l45.6 45.6L704 26.399999999999977l210.4 210.4 45.6-45.6-210.4-210.4z"  horiz-adv-x="1024" />

    
    <glyph glyph-name="seting" unicode="&#59576;" d="M940 300l-76 57.6c0.8 8 1.6 16.8 1.6 26.4s-0.8 18.4-1.6 26.4l76 57.6c20.8 16 26.4 44 12.8 68l-84.8 143.2c-9.6 16.8-28 27.2-47.2 27.2-6.4 0-12-0.8-18.4-3.2L712 668c-15.2 10.4-31.2 19.2-47.2 26.4l-13.6 92c-4 26.4-26.4 45.6-53.6 45.6H426.4c-27.2 0-49.6-19.2-53.6-44.8L360 694.4c-16-7.2-31.2-16-47.2-26.4l-90.4 35.2c-6.4 2.4-12.8 3.2-19.2 3.2-19.2 0-37.6-9.6-46.4-26.4L71.2 536c-13.6-22.4-8-52 12.8-68l76-57.6c-0.8-9.6-1.6-18.4-1.6-26.4s0-16.8 1.6-26.4l-76-57.6c-20.8-16-26.4-44-12.8-68l84.8-143.2c9.6-16.8 28-27.2 47.2-27.2 6.4 0 12 0.8 18.4 3.2L312 100c15.2-10.4 31.2-19.2 47.2-26.4l13.6-92c3.2-25.6 26.4-45.6 53.6-45.6h171.2c27.2 0 49.6 19.2 53.6 44.8l13.6 92.8c16 7.2 31.2 16 47.2 26.4l90.4-35.2c6.4-2.4 12.8-3.2 19.2-3.2 19.2 0 37.6 9.6 46.4 26.4l85.6 144.8c12.8 23.2 7.2 51.2-13.6 67.2zM704 384c0-105.6-86.4-192-192-192S320 278.4 320 384s86.4 192 192 192 192-86.4 192-192z"  horiz-adv-x="1024" />

    
    <glyph glyph-name="mic" unicode="&#59586;" d="M544 65.60000000000002V-64h-64v129.6c-161.6 16-288 152.8-288 318.4h64c0-140.8 115.2-256 256-256s256 115.2 256 256h64c0-165.6-126.4-302.4-288-318.4zM512 256c70.4 0 128 57.6 128 128V704c0 70.4-57.6 128-128 128s-128-57.6-128-128v-320c0-70.4 57.6-128 128-128z"  horiz-adv-x="1024" />

    
    <glyph glyph-name="prev" unicode="&#59631;" d="M319.64 383.98400000000004l336.016 336.008 45.248-45.248L364.896 338.72zM365.216 429.536l339.976-339.968-45.256-45.256-339.976 339.976z"  horiz-adv-x="1024" />

    
    <glyph glyph-name="next" unicode="&#59633;" d="M658.56 338.60799999999995L322.536 674.616l45.248 45.256 336.016-336.008zM704.088 383.79999999999995L364.12 43.84000000000003l-45.256 45.248 339.976 339.976z"  horiz-adv-x="1024" />

    
    <glyph glyph-name="left" unicode="&#59636;" d="M896 352H250.4l242.4-242.4L448 64 173.6 338.4 128 384l45.6 45.6L448 704l45.6-45.6L250.4 416H896v-64z"  horiz-adv-x="1024" />

    
    <glyph glyph-name="right" unicode="&#59637;" d="M128 416h645.6L530.4 658.4 576 704l274.4-274.4L896 384l-45.6-45.6L576 64l-45.6 45.6L773.6 352H128v64z"  horiz-adv-x="1024" />

    
    <glyph glyph-name="top" unicode="&#59638;" d="M480 0V645.6L237.6 402.4 192 448l274.4 274.4L512 768l45.6-45.6L832 448l-45.6-45.6L544 645.6V0h-64z"  horiz-adv-x="1024" />

    
    <glyph glyph-name="bottom" unicode="&#59639;" d="M544 768v-645.6l242.4 242.4L832 320l-274.4-274.4L512 0l-45.6 45.6L192 320l45.6 45.6L480 122.39999999999998V768h64z"  horiz-adv-x="1024" />

    
    <glyph glyph-name="quanping" unicode="&#59642;" d="M240.8 700l178.4-178.4-45.6-45.6-177.6 179.2-68-68V768h180.8l-68-68z m133.6-408.8L196 112.8 128 180.8V0h180.8l-68 68 178.4 178.4-44.8 44.8zM715.2 768l68-68-178.4-178.4 45.6-45.6 178.4 178.4 68-68V768H715.2z m-65.6-476.8l-45.6-45.6 178.4-178.4-68-68H896V180.8l-68-68-178.4 178.4z"  horiz-adv-x="1024" />

    
    <glyph glyph-name="tuichuquanping" unicode="&#59643;" d="M142.4 799.2l-44.8-44.8 173.6-174.4-68-68H384V692.8l-67.2-67.2zM752.8 580l173.6 174.4-44.8 44.8-174.4-173.6-67.2 67.2V512h180.8zM270.4 188.8l-169.6-170.4 44.8-49.6 170.4 174.4 68-68V256H203.2zM820.8 256H640v-180.8l68 68 170.4-174.4 44.8 49.6-169.6 170.4z"  horiz-adv-x="1024" />

    
    <glyph glyph-name="count" unicode="&#59548;" d="M546.499189 785.164595V826.771503h139.690308c19.70976 0 34.509533 16.498489 34.509533 34.625884C720.69903 881.176957 704.270351 896 686.189497 896H336.160909c-19.70976 0-34.509533-16.475219-34.509533-34.602613 0-19.779571 16.428679-34.625883 34.509533-34.625884h139.690308v-43.259084C242.498825 767.0372 56.803563 569.241495 56.803563 328.582297c0-252.177889 203.776116-456.559027 455.186093-456.559027s455.186092 204.381139 455.186092 456.559027c0 240.659198-185.695262 438.454903-420.676559 456.582298z m-34.509533-842.260652c-213.642632 0-386.167026 173.059607-386.167027 387.33053S298.347024 717.565004 511.989656 717.565004c213.619361 0 386.167026-173.059607 386.167026-387.330531s-172.547665-387.330531-386.167026-387.33053z m34.509533 484.599477v182.949392c0 19.779571-16.428679 34.625883-34.509533 34.625884-19.70976 0-34.509533-16.498489-34.509533-34.625884v-182.949392c-41.094966-14.846313-70.671242-52.753278-70.671242-98.897852 0-57.686536 47.65713-105.483286 105.180775-105.483286 57.500375 0 105.180775 47.79675 105.180775 105.483286 0 46.144574-29.599546 85.680445-70.671242 98.897852z"  horiz-adv-x="1024" />

    
    <glyph glyph-name="range" unicode="&#58910;" d="M170.666667 611.555556H56.888889a56.888889 56.888889 0 0 0 0 113.777777h113.777778z m967.111111 56.888888a56.888889 56.888889 0 0 1-56.888889 56.888889H625.777778v-113.777777h455.111111a56.888889 56.888889 0 0 1 56.888889 56.888888zM455.111111 896h-113.777778a56.888889 56.888889 0 0 1-56.888889-56.888889v-341.333333a56.888889 56.888889 0 0 1 56.888889-56.888889h113.777778a56.888889 56.888889 0 0 1 56.888889 56.888889V839.1111109999999a56.888889 56.888889 0 0 1-56.888889 56.888889z m341.333333-568.888889h-113.777777a56.888889 56.888889 0 0 1-56.888889-56.888889v-341.333333a56.888889 56.888889 0 0 1 56.888889-56.888889h113.777777a56.888889 56.888889 0 0 1 56.888889 56.888889V270.222222a56.888889 56.888889 0 0 1-56.888889 56.888889z m341.333334-227.555555a56.888889 56.888889 0 0 1-56.888889 56.888888h-113.777778v-113.777777h113.777778a56.888889 56.888889 0 0 1 56.888889 56.888889z m-625.777778 56.888888H56.888889a56.888889 56.888889 0 0 1 0-113.777777h455.111111z"  horiz-adv-x="1137" />

    
    <glyph glyph-name="button" unicode="&#58885;" d="M840.533333 121.17333299999996H183.466667a134.826667 134.826667 0 0 0-140.8 140.8V506.026667a134.826667 134.826667 0 0 0 140.8 140.8h657.066666a134.826667 134.826667 0 0 0 140.8-140.8v-244.053334a134.826667 134.826667 0 0 0-140.8-140.8zM183.466667 571.733333a59.733333 59.733333 0 0 1-65.706667-65.706666v-244.053334A59.733333 59.733333 0 0 1 183.466667 196.26666699999998h657.066666a59.733333 59.733333 0 0 1 65.706667 65.706666V506.026667A59.733333 59.733333 0 0 1 840.533333 571.733333z"  horiz-adv-x="1024" />

    
    <glyph glyph-name="lists" unicode="&#59014;" d="M1064.751646 767.157391h171.739078a22.980251 22.980251 0 0 1 0 45.960502H1064.751646a22.980251 22.980251 0 0 1 0-45.960502zM22.980251 767.157391h800.019151a22.980251 22.980251 0 0 1 0 45.960502H22.980251a22.980251 22.980251 0 0 1 0-45.960502zM1064.751646 730.235787H822.999402l22.980251-22.980251V873.019749L822.999402 850.039497h241.752244l-22.980252 22.980252v-165.764213a22.980251 22.980251 0 0 1 45.960503 0V873.019749a23.286655 23.286655 0 0 1-22.980251 22.980251H822.999402a23.286655 23.286655 0 0 1-22.980252-22.980251v-165.764213a23.286655 23.286655 0 0 1 22.980252-22.980252h241.752244a22.980251 22.980251 0 0 1 0 45.960503zM436.624776 361.01974900000005h799.865948a22.980251 22.980251 0 0 1 0 45.960502H436.624776a22.980251 22.980251 0 0 1 0-45.960502zM22.980251 361.01974900000005h171.89228a22.980251 22.980251 0 0 1 0 45.960502H22.980251a22.980251 22.980251 0 0 1 0-45.960502zM436.624776 324.09814500000005H194.872531l22.980252-22.980252V467.035308l-22.980252-22.980251h241.752245l-22.980252 22.980251v-165.917415a22.980251 22.980251 0 0 1 45.960503 0V467.035308a23.286655 23.286655 0 0 1-22.980251 22.980252H194.872531a23.286655 23.286655 0 0 1-22.980251-22.980252v-165.917415a23.286655 23.286655 0 0 1 22.980251-22.980251h241.752245a22.980251 22.980251 0 0 1 0 45.960503zM850.2693-45.11789299999998h386.221424a22.980251 22.980251 0 0 1 0 45.960502H850.2693a22.980251 22.980251 0 0 1 0-45.960502zM22.980251-45.11789299999998h585.536805a22.980251 22.980251 0 0 1 0 45.960502H22.980251a22.980251 22.980251 0 0 1 0-45.960502zM850.2693-82.03949699999998H608.517056l22.980251-22.980252V60.591263000000026L608.517056 38.07061599999997h241.752244l-22.980252 22.980252v-166.070617a22.980251 22.980251 0 0 1 45.960503 0V60.591263000000026a23.286655 23.286655 0 0 1-22.980251 22.980251H608.517056a23.286655 23.286655 0 0 1-22.980252-22.980251v-165.611012a23.286655 23.286655 0 0 1 22.980252-22.980251h241.752244a22.980251 22.980251 0 0 1 0 45.960503z"  horiz-adv-x="1259" />

    
    <glyph glyph-name="aite" unicode="&#58941;" d="M719.824 638.912h65.904c-8.24-28.16-16.32-55.088-24.208-80.832-7.904-25.744-13.568-46.176-16.992-61.28L686.88 272.32000000000005c-8.944-32.96-13.232-55.792-12.88-68.48 0.336-12.72 3.76-21.984 10.304-27.808 6.512-5.824 18.016-8.08 34.496-6.688a116.528 116.528 0 0 1 58.192 19.568c17.504 11.664 35.856 30.368 55.088 56.128 19.2 25.744 32.432 44.8 39.648 57.152s15.264 29.344 24.208 50.992c8.912 21.616 15.088 41.856 18.528 60.752 3.44 18.88 5.312 43.76 5.664 74.656 0.336 30.896-6.016 64.88-19.056 101.952-10.992 27.44-28.832 56.976-53.552 88.56-24.704 31.568-52.352 54.4-82.896 68.48-30.56 14.064-54.256 23.504-71.056 28.32-16.832 4.8-35.36 8.752-55.616 11.84s-40 5.312-59.2 6.688c-21.984 0.672-44.8 0.16-68.48-1.552-23.68-1.712-45.312-4.48-64.88-8.24-19.568-3.776-40.848-9.968-63.84-18.544-23.008-8.592-47.216-21.296-72.608-38.096a533.808 533.808 0 0 1-70.016-55.088c-21.296-19.92-41.712-44.64-61.28-74.144-19.568-29.52-34.16-55.28-43.76-77.232-9.632-21.984-17.168-46-22.656-72.08a475.728 475.728 0 0 1-9.776-80.832c-1.024-27.808 0.512-54.064 4.64-78.784 3.424-24.72 11.664-53.904 24.704-87.536 13.04-33.648 32.272-65.232 57.664-94.736a374.384 374.384 0 0 1 85.984-74.16c31.936-19.904 60.592-34.656 86-44.288 25.392-9.616 52.672-16.304 81.872-20.08a540.64 540.64 0 0 1 82.912-4.64c32.944 0 62.976 2.064 90.096 6.192s52.336 9.44 75.68 15.952a298.832 298.832 0 0 1 65.408 26.784c20.24 11.328 45.472 27.648 75.68 48.928 30.208 21.264 49.072 36.368 56.64 45.312l26.768 30.896h59.728c-19.232-24.72-36.56-45.152-52.016-61.28-15.44-16.144-36.384-34.144-62.816-54.064-26.432-19.904-53.2-36.72-80.336-50.448s-61.776-26.272-104-37.6-86.688-17.328-133.36-18.016c-24.72-0.672-56.128 0.864-94.224 4.624-38.096 3.776-69.52 9.776-94.224 18.032a497.536 497.536 0 0 0-68.48 28.32 403.68 403.68 0 0 0-57.152 35.008c-17.168 12.72-35.888 28.672-56.128 47.888a323.312 323.312 0 0 0-51.488 62.304c-14.08 22.304-24.896 42.368-32.432 60.256-7.568 17.84-14.416 38.768-20.592 62.816a405.552 405.552 0 0 0-11.84 74.144 1011.36 1011.36 0 0 0-2.576 67.968c0.672 27.456 4.128 54.912 10.304 82.384 6.176 27.456 17.856 58.704 35.008 93.712s38.624 68.64 64.352 100.928c25.744 32.256 51.824 58.864 78.272 79.808 26.416 20.944 48.4 35.872 65.904 44.8a595.184 595.184 0 0 0 54.064 24.208c18.528 7.216 39.648 13.728 63.328 19.568a465.072 465.072 0 0 0 71.056 11.84c23.68 2.064 45.12 3.088 64.352 3.088 29.52-0.688 59.376-3.776 89.6-9.28 30.208-5.504 56.464-12.704 78.784-21.632 22.304-8.928 47.008-21.632 74.144-38.096s47.536-31.76 61.28-45.824c13.712-14.08 28.144-31.584 43.248-52.528 15.088-20.96 26.416-41.552 33.984-61.792a483.792 483.792 0 0 0 18.528-62.304c4.8-21.28 7.216-44.976 7.216-71.056-0.704-24.704-4.128-52.688-10.32-83.92a376.288 376.288 0 0 0-30.368-90.624c-14.08-29.184-29.696-54.576-46.864-76.208s-35.696-40.864-55.616-57.664c-19.904-16.832-40.848-30.224-62.816-40.16-21.984-9.968-41.872-15.632-59.712-17.008a102.608 102.608 0 0 0-48.928 7.728c-15.456 6.512-24.896 14.928-28.32 25.216l-15.456 32.96c-16.48-14.4-36.048-29.184-58.704-44.288-22.64-15.104-53.552-22.32-92.672-21.632-26.096 0-52.512 5.488-79.296 16.48-26.784 10.976-47.552 23.504-62.304 37.584-14.768 14.064-27.296 30.384-37.584 48.928s-17.504 36.72-21.632 54.576a212.016 212.016 0 0 0-5.152 55.616c0 26.08 3.76 53.024 11.328 80.832 7.552 27.808 14.576 49.072 21.12 63.856 6.512 14.752 13.216 28.32 20.08 40.672 6.848 12.352 20.416 30.544 40.672 54.576 20.24 24.016 42.56 43.936 66.944 59.728 24.352 15.776 48.736 27.44 73.104 35.008 24.368 7.552 51.312 11.328 80.848 11.328 20.592-0.688 37.408-3.088 50.448-7.2a208.96 208.96 0 0 0 38.112-16.48c12.352-6.88 20.592-12.352 24.72-16.48l22.656-25.744 18.544 34.992z m-45.312-116.368c-1.392 15.088-5.84 30.544-13.392 46.336-7.568 15.776-20.08 30.544-37.584 44.288-17.52 13.712-40.336 21.264-68.48 22.656-26.096 0.672-51.152-5.152-75.184-17.504a298.72 298.72 0 0 1-67.456-47.888 282.112 282.112 0 0 1-52-64.88 332.912 332.912 0 0 1-32.432-77.744c-7.904-28.16-12.352-59.056-13.392-92.672-1.024-33.648 1.888-61.456 8.752-83.424 6.176-21.28 15.792-40.16 28.832-56.624 13.04-16.48 30.208-29.36 51.488-38.624 21.28-9.264 44.96-11.168 71.056-5.664a135.008 135.008 0 0 1 62.832 28.832c18.528 15.088 33.792 31.232 45.808 48.4a336.768 336.768 0 0 1 30.896 54.064c8.576 18.88 16.64 41.344 24.208 67.44l17.52 66.944c8.24 32.272 13.376 56.288 15.44 72.08 2.064 15.792 3.088 27.12 3.088 33.984z"  horiz-adv-x="1029" />

    
    <glyph glyph-name="indexlist" unicode="&#59048;" d="M51.2 307.20000000000005h179.2L51.2 25.600000000000023v-25.6h281.6v51.2H153.6l179.2 281.6v25.6l-284.032-0.4608L51.2 307.20000000000005zM153.6 793.6L25.6 435.2h76.8l25.6 102.4h128l25.6-102.4h76.8L230.4 793.6H153.6z m0-204.8l34.1248 128L230.4 588.8H153.6z m294.4 102.4h512a38.4 38.4 0 1 1 0 76.8h-512a38.4 38.4 0 0 1 0-76.8z m512-256h-512a38.4 38.4 0 0 1 0-76.8h512a38.4 38.4 0 1 1 0 76.8z m0-332.8h-512a38.4 38.4 0 0 1 0-76.8h512a38.4 38.4 0 1 1 0 76.8z"  horiz-adv-x="1024" />

    
    <glyph glyph-name="Pullrefresh" unicode="&#58932;" d="M815.658667 472.832c10.730667-40.106667 13.269333-81.130667 7.509333-121.941333a307.072 307.072 0 0 0-38.741333-111.573334 309.397333 309.397333 0 0 0-187.946667-143.637333 308.693333 308.693333 0 0 0-122.581333-7.808 308.202667 308.202667 0 0 0-112 38.186667 306.218667 306.218667 0 0 0-143.829334 186.666666 306.090667 306.090667 0 0 0-2.773333 146.986667 311.786667 311.786667 0 0 0 50.218667 111.189333l-28.970667-7.786666a35.413333 35.413333 0 0 0-43.349333 24.874666 35.370667 35.370667 0 0 0 25.130666 43.221334l109.461334 29.354666a35.413333 35.413333 0 0 0 43.370666-24.874666l31.594667-117.973334a35.413333 35.413333 0 0 0-25.130667-43.178666 35.370667 35.370667 0 0 0-43.349333 24.874666l-9.024 33.642667c-42.773333-57.834667-57.258667-132.778667-38.698667-202.026667 33.834667-126.229333 164.693333-201.28 291.669334-167.253333 126.997333 34.026667 202.794667 164.458667 168.96 290.730667-30.848 115.114667-141.824 182.528-257.984 173.781333-37.546667-2.816-54.250667 13.269333-56.746667 38.357333-3.349333 33.258667 37.034667 35.989333 56.32 37.034667 26.581333 1.472 44.522667-2.346667 71.04-5.994667 39.594667-5.418667 77.290667-18.282667 112.042667-38.208a306.218667 306.218667 0 0 0 143.808-186.666666"  horiz-adv-x="1024" />

    
    <glyph glyph-name="checkbox" unicode="&#58901;" d="M921.6-128H102.4a102.4 102.4 0 0 0-102.4 102.4V793.6a102.4 102.4 0 0 0 102.4 102.4h819.2a102.4 102.4 0 0 0 102.4-102.4v-819.2a102.4 102.4 0 0 0-102.4-102.4z m-70.656 706.56a74.1376 74.1376 0 0 1-97.28 0L413.696 243.81439999999998 266.24 386.048a74.1376 74.1376 0 0 1-97.28 0 78.336 78.336 0 0 1 0-95.232l195.584-189.7472a73.4208 73.4208 0 0 1 98.304 0l389.12 382.6688a76.9024 76.9024 0 0 1-1.024 94.8224z"  horiz-adv-x="1024" />

    
    <glyph glyph-name="textarea" unicode="&#59114;" d="M42.666667-85.333333h938.666666V853.333333H42.666667v-938.666666zM0 853.333333a42.666667 42.666667 0 0 0 42.666667 42.666667h938.666666a42.666667 42.666667 0 0 0 42.666667-42.666667v-938.666666a42.666667 42.666667 0 0 0-42.666667-42.666667H42.666667a42.666667 42.666667 0 0 0-42.666667 42.666667V853.333333zM796.885333 40.661333a18.986667 18.986667 0 1 0-28.672 24.96l19.2 22.058667a18.986667 18.986667 0 1 0 28.629334-24.96l-19.2-22.058667zM708.48 57.514667c-10.538667-11.776-25.898667-15.232-34.346667-7.68-8.405333 7.509333-6.741333 23.168 3.797334 34.944l72.533333 81.322666c10.538667 11.818667 25.941333 15.274667 34.346667 7.722667 8.448-7.509333 6.741333-23.168-3.797334-34.986667l-72.533333-81.322666M182.485333 633.770667v-43.648h112.170667V298.666667h50.688V590.122667h111.701333V633.770667z"  horiz-adv-x="1024" />

    
    <glyph glyph-name="datatime" unicode="&#58938;" d="M482.816 138.75199999999995v-41.472H250.368c-0.512 10.24 1.536 20.48 5.12 30.208 6.144 15.872 15.36 31.232 28.672 46.592 12.8 15.36 31.744 33.28 56.32 53.248 38.4 31.232 64 56.32 77.312 74.752s19.968 35.84 19.968 51.712c0 16.896-6.144 31.744-18.432 43.52S391.68 414.72 371.712 414.72c-20.992 0-37.376-6.144-50.176-18.944s-18.944-29.696-18.944-51.712l-44.544 4.608c3.072 33.28 14.336 58.368 34.304 75.776C312.32 441.856 338.944 450.56 372.224 450.56c33.792 0 60.416-9.216 80.384-28.16s29.696-41.984 29.696-69.632c0-14.336-3.072-28.16-8.704-41.472s-15.36-28.16-28.672-43.008c-13.312-14.848-35.328-35.84-66.56-61.952-26.112-21.504-42.496-36.352-50.176-44.032-7.168-7.68-13.312-15.36-18.432-23.552h173.056zM770.56 363.00800000000004l-43.008-3.584c-4.096 16.896-9.216 29.184-16.384 36.864-11.776 12.288-26.112 18.432-43.008 18.432-13.824 0-25.6-4.096-36.352-11.264-13.824-9.728-24.576-24.576-32.256-43.52s-11.776-46.08-12.288-81.408c10.24 15.872 23.04 27.648 38.4 35.328s30.72 11.264 47.104 11.264c28.672 0 53.248-10.752 73.728-31.744s30.208-48.64 30.208-82.432c0-22.016-4.608-42.496-14.336-61.44s-22.528-33.28-39.424-43.52-35.328-15.36-56.832-15.36c-35.84 0-65.536 13.312-88.064 39.936s-34.304 70.144-34.304 131.072c0 68.096 12.8 117.248 37.888 148.48 22.016 26.624 51.2 40.448 88.576 40.448 27.648 0 50.176-7.68 68.096-23.04s28.672-37.376 32.256-64.512z m-176.128-151.552c0-14.848 3.072-29.184 9.728-42.496s15.36-24.064 26.624-31.232 23.04-10.752 35.84-10.752c18.432 0 33.792 7.168 47.104 22.016s19.456 34.816 19.456 59.904c0 24.576-6.656 43.52-19.456 57.344s-29.184 20.992-49.152 20.992c-19.456 0-35.84-7.168-49.664-20.992s-20.48-32.256-20.48-54.784zM962.56 757.76h-117.76v-61.44c0-28.16-23.04-51.2-51.2-51.2s-51.2 23.04-51.2 51.2V757.76H281.6v-61.44c0-28.16-23.04-51.2-51.2-51.2s-51.2 23.04-51.2 51.2V757.76H61.44c-5.632 0-10.24-4.608-10.24-10.24v-814.08c0-5.632 4.608-10.24 10.24-10.24h901.12c5.632 0 10.24 4.608 10.24 10.24V747.52c0 5.632-4.608 10.24-10.24 10.24z m-40.96-783.36H102.4V568.3199999999999h819.2v-593.92zM230.4 670.72c14.336 0 25.6 11.264 25.6 25.6V819.2c0 14.336-11.264 25.6-25.6 25.6s-25.6-11.264-25.6-25.6v-122.88c0-14.336 11.264-25.6 25.6-25.6zM793.6 670.72c14.336 0 25.6 11.264 25.6 25.6V819.2c0 14.336-11.264 25.6-25.6 25.6s-25.6-11.264-25.6-25.6v-122.88c0-14.336 11.264-25.6 25.6-25.6z"  horiz-adv-x="1024" />

    
    <glyph glyph-name="card" unicode="&#59702;" d="M960 640v-64H64v64c0 35.2 28.8 64 64 64h768c35.2 0 64-28.8 64-64z m0-128v-384c0-35.2-28.8-64-64-64H128c-35.2 0-64 28.8-64 64V512h896zM256 256H128v-32h128v32z m128 64H128v-32h256v32z"  horiz-adv-x="1024" />

    
    <glyph glyph-name="hongbao" unicode="&#59703;" d="M192 693.6V0c0-35.2 28.8-64 64-64h512c35.2 0 64 28.8 64 64V693.6L512 640l-320 53.6z m412.8-242.4l45.6-45.6L563.2 320H640v-64H544v-32h96v-64H544v-96h-64V160H384v64h96v32H384v64h76.8L374.4 406.4l45.6 45.6L512 359.2l92.8 92zM768 832H256c-35.2 0-64-28.8-64-64v-42.4L512 672l320 53.6V768c0 35.2-28.8 64-64 64z"  horiz-adv-x="1024" />

    
    <glyph glyph-name="step" unicode="&#58906;" d="M806.649913-128H217.745989a217.745989 217.745989 0 0 0-217.745989 217.745989V678.254011A217.745989 217.745989 0 0 0 217.745989 896h588.903924a217.745989 217.745989 0 0 0 217.745989-217.745989v-588.903924a217.745989 217.745989 0 0 0-217.745989-217.350087zM217.745989 881.945486A203.691475 203.691475 0 0 1 14.054514 678.254011v-588.903924A203.691475 203.691475 0 0 1 217.745989-113.54958399999998h588.903924A203.691475 203.691475 0 0 1 1009.549584 89.35008700000003V678.254011A203.691475 203.691475 0 0 1 806.649913 881.945486zM566.931374 695.475739h-94.81848a71.064373 71.064373 0 0 1 0-142.128745h94.81848a71.064373 71.064373 0 0 1 0 142.128745z m0-237.541078h-94.81848a71.064373 71.064373 0 0 1 0-142.128746h94.81848a71.064373 71.064373 0 0 1 0 142.128746z m0-237.541079h-94.81848a71.064373 71.064373 0 0 1 0-142.128745h94.81848a71.064373 71.064373 0 0 1 0 141.930794z m-260.899284-46.32051a94.62053 94.62053 0 1 0 0 189.43901h47.310265v47.706167h-47.112314a142.128745 142.128745 0 0 1 0-284.455442v-47.310265L376.106708 150.51691500000004l-71.064373 71.064372v-47.310264zM732.418326 647.769573h-46.914363v-47.706167H732.418326a94.62053 94.62053 0 1 0 0-189.241059v47.508216l-71.064373-71.064373L732.418326 316.201817v47.508216a142.128745 142.128745 0 1 1 0 284.05954z"  horiz-adv-x="1024" />

    


  </font>
</defs>
</svg>
